<svg xmlns="http://www.w3.org/2000/svg" xmlns:xlink="http://www.w3.org/1999/xlink" width="89" height="90" viewBox="0 0 89 90">
    <defs>
        <path id="a" d="M.182 52.857l39.756 13.544 39.757 13.544L62.301.756z"/>
    </defs>
    <g fill="none" fill-rule="evenodd">
        <path fill="#90D2CF" d="M63.025.263L.906 52.363l39.756 13.544L80.42 79.45z"/>
        <path fill="#224B87" d="M9.182 62.05l39.756 13.542 39.756 13.544-.874-3.98L12.305 59.43zM18.128 54.546L86.19 77.732l-.878-3.996-64.049-21.819zM27.085 47.034l56.597 19.28-.878-3.996L30.22 44.405zM36.042 39.521l45.131 15.374-.877-3.996-41.118-14.008zM45 32.008l33.666 11.47-.878-3.998-29.653-10.102zM53.957 24.496l22.2 7.563-.877-3.997-18.188-6.196zM62.915 16.982L73.65 20.64l-.878-3.997-6.722-2.289z"/>
        <g transform="translate(9 9.192)">
            <mask id="b" fill="#fff">
                <use xlink:href="#a"/>
            </mask>
            <path fill="#224B87" d="M117.065 18.74L9.572-17.88l1.13-3.313 107.492 36.62z" mask="url(#b)"/>
        </g>
    </g>
</svg>
