<svg xmlns="http://www.w3.org/2000/svg" xmlns:xlink="http://www.w3.org/1999/xlink" width="100" height="73" viewBox="0 0 100 73">
    <defs>
        <path id="a" d="M.11.43h33.064V31H.11z"/>
        <path id="c" d="M0 .14h19.625v19.624H0z"/>
    </defs>
    <g fill="none" fill-rule="evenodd">
        <g transform="translate(31 41.86)">
            <mask id="b" fill="#fff">
                <use xlink:href="#a"/>
            </mask>
            <path fill="#224B87" d="M1.883 6.049l14.622-2.146c-.719 4.358-1.434 8.718-2.15 13.078-.183 1.095.844 1.791 1.81 1.748 4.504-.203 9.006-.403 13.51-.605l-1.94 11.177c-.352 2.018 2.805 2.365 3.155.353.754-4.339 1.506-8.679 2.261-13.019.19-1.094-.855-1.789-1.812-1.748-4.51.203-9.019.404-13.527.605.728-4.432 1.46-8.864 2.187-13.297.17-1.025-.837-1.891-1.81-1.75-5.592.822-11.184 1.641-16.774 2.462-2.024.298-1.56 3.439.468 3.142" mask="url(#b)"/>
        </g>
        <path fill="#ED83AE" d="M68.015 43.388l14.622-2.146c-.719 4.358-1.434 8.718-2.15 13.078-.183 1.095.844 1.79 1.81 1.748 4.504-.203 9.006-.403 13.51-.605l-1.94 11.177c-.352 2.018 2.805 2.365 3.155.353.754-4.34 1.506-8.68 2.261-13.02.19-1.093-.855-1.788-1.812-1.747-4.51.203-9.019.404-13.527.605.728-4.432 1.46-8.864 2.187-13.297.17-1.025-.837-1.891-1.81-1.75-5.592.822-11.184 1.64-16.774 2.462-2.024.298-1.56 3.439.468 3.142"/>
        <g transform="translate(0 -.14)">
            <mask id="d" fill="#fff">
                <use xlink:href="#c"/>
            </mask>
            <path fill="#90D2CF" d="M19.625 7.292H12.47V.14H7.15v7.152H0v5.32h7.15v7.152h5.32v-7.152h7.155z" mask="url(#d)"/>
        </g>
    </g>
</svg>
