<svg xmlns="http://www.w3.org/2000/svg" xmlns:xlink="http://www.w3.org/1999/xlink" width="99" height="119" viewBox="0 0 99 119">
    <defs>
        <path id="a" d="M0 .955h85.799v81.276H0z"/>
        <path id="c" d="M.092.725h85.8V82H.091z"/>
    </defs>
    <g fill="none" fill-rule="evenodd">
        <g transform="translate(0 -.955)">
            <mask id="b" fill="#fff">
                <use xlink:href="#a"/>
            </mask>
            <path fill="#EE558D" d="M85.15 78.846c-3.708-3.29-7.436-4.043-12.106-5.1-6.35-1.436-8.874-6.992-10.326-12.633-1.221-4.754-4.633-8.487-8.826-10.893-1.786-1.026-3.912-1.44-5.913-1.8-3.172-.573-5.621-1.594-8.068-3.766-4.021-3.569-3.476-8.504-5.897-12.848-2.54-4.557-6.794-7.738-11.86-8.885-5.623-1.27-10.55-2.955-12.897-8.873-.763-1.93-1.026-4.04-1.686-6.009-.86-2.564-2.554-4.652-4.438-6.538C1.379-.258-1.161 2.641.588 4.393c3.835 3.843 3.424 8.412 5.896 12.847 2.54 4.556 6.794 7.74 11.86 8.886 5.622 1.271 10.548 2.953 12.896 8.872.765 1.931 1.028 4.041 1.687 6.01.86 2.564 2.556 4.653 4.438 6.538 3.433 3.443 7.603 4.082 12.105 5.102 6.349 1.434 8.875 6.99 10.326 12.632 1.22 4.753 4.633 8.485 8.827 10.893 1.785 1.026 3.91 1.442 5.913 1.8 3.173.573 5.62 1.595 8.07 3.767 1.856 1.646 4.405-1.243 2.544-2.894" mask="url(#b)"/>
        </g>
        <g transform="translate(13 37.045)">
            <mask id="d" fill="#fff">
                <use xlink:href="#c"/>
            </mask>
            <path fill="#90D2CF" d="M85.243 78.617c-3.708-3.291-7.436-4.043-12.106-5.102-6.35-1.435-8.874-6.99-10.326-12.632-1.221-4.754-4.633-8.487-8.826-10.893-1.786-1.025-3.912-1.441-5.913-1.801-3.172-.572-5.621-1.592-8.068-3.765-4.021-3.57-3.476-8.504-5.897-12.848-2.54-4.557-6.794-7.738-11.86-8.885-5.623-1.271-10.55-2.955-12.897-8.873-.763-1.93-1.026-4.041-1.686-6.01-.86-2.564-2.554-4.652-4.438-6.537C1.472-.487-1.068 2.41.68 4.164c3.835 3.842 3.424 8.412 5.896 12.846 2.54 4.556 6.794 7.74 11.86 8.886 5.622 1.272 10.548 2.953 12.896 8.873.765 1.93 1.028 4.04 1.687 6.008.86 2.565 2.556 4.654 4.438 6.539 3.433 3.444 7.603 4.082 12.105 5.102 6.349 1.435 8.875 6.99 10.326 12.633 1.22 4.752 4.633 8.484 8.827 10.892 1.785 1.026 3.91 1.442 5.913 1.8 3.173.573 5.62 1.595 8.07 3.767 1.856 1.646 4.405-1.243 2.544-2.893" mask="url(#d)"/>
        </g>
    </g>
</svg>
