<svg xmlns="http://www.w3.org/2000/svg" width="56" height="64" viewBox="0 0 56 64">
    <g fill="#000" fill-rule="evenodd">
        <path fill-rule="nonzero" d="M9.892 39.656a3.544 3.544 0 0 0-.355 2.703 3.537 3.537 0 0 0 1.656 2.162 3.527 3.527 0 0 0 2.697.356 3.532 3.532 0 0 0 2.158-1.66l2.08-3.607A20.837 20.837 0 0 0 28 42.085c3.567 0 6.928-.897 9.873-2.475l2.079 3.608a3.555 3.555 0 0 0 4.855 1.303 3.57 3.57 0 0 0 1.3-4.865l-2.573-4.467A20.985 20.985 0 0 0 49 21.043C49 9.44 39.58 0 28 0S7 9.44 7 21.043a20.985 20.985 0 0 0 5.466 14.146l-2.574 4.467zm4.001 2.315a1.059 1.059 0 0 1-.647.498 1.057 1.057 0 0 1-.808-.107 1.06 1.06 0 0 1-.497-.648 1.063 1.063 0 0 1 .107-.81l2.258-3.921c.543.469 1.11.91 1.7 1.322l-2.113 3.666zm30.06-1.068a1.066 1.066 0 1 1-1.846 1.068l-2.113-3.666c.59-.412 1.157-.853 1.7-1.322l2.259 3.92zM9.488 21.043c0-10.228 8.305-18.55 18.512-18.55s18.512 8.322 18.512 18.55c0 4.508-1.615 8.645-4.293 11.863a18.682 18.682 0 0 1-3.473 3.232c-.674.483-1.382.92-2.118 1.311A18.367 18.367 0 0 1 28 39.591c-3.114 0-6.05-.775-8.628-2.142a18.561 18.561 0 0 1-5.59-4.543 18.487 18.487 0 0 1-4.294-11.863z"/>
        <path d="M21.645 33.527A14.333 14.333 0 0 0 28 35c2.287 0 4.447-.531 6.355-1.473a13.954 13.954 0 0 0 5.173-4.376A13.093 13.093 0 0 0 42 21.501c0-2.256-.588-4.488-1.701-6.456-.337-.596-1.112-.815-1.73-.49a1.207 1.207 0 0 0-.509 1.668 10.742 10.742 0 0 1 1.39 5.277c0 6.088-5.136 11.04-11.45 11.04-6.313 0-11.45-4.952-11.45-11.04 0-6.088 5.137-11.04 11.45-11.04 1.163 0 2.31.167 3.41.497.672.201 1.387-.16 1.596-.809.21-.648-.166-1.337-.838-1.54A14.482 14.482 0 0 0 28 8c-7.72 0-14 6.056-14 13.5 0 2.839.914 5.475 2.472 7.651a13.958 13.958 0 0 0 5.173 4.376z"/>
        <path d="M24.7 27.086a5.9 5.9 0 0 0 3.147.914C31.24 28 34 25.084 34 21.5S31.24 15 27.847 15c-1.712 0-3.36.763-4.522 2.094a1.347 1.347 0 0 0 .07 1.829 1.18 1.18 0 0 0 1.731-.074c.71-.812 1.676-1.26 2.721-1.26 2.042 0 3.702 1.755 3.702 3.91 0 2.157-1.66 3.912-3.702 3.912-.668 0-1.322-.19-1.892-.55-.581-.366-1.334-.165-1.68.45-.347.614-.157 1.408.424 1.775z"/>
        <path fill-rule="nonzero" d="M31.222 46.9a1.278 1.278 0 0 0 1.161 1.79 1.27 1.27 0 0 0 1.163-.761l1.346-3.067a1.28 1.28 0 0 0-.756-1.724l-3.162-1.07a1.268 1.268 0 0 0-1.608.8 1.277 1.277 0 0 0 .797 1.616l.062.021-18.54 8.21-.956-.706a3.487 3.487 0 0 0-3.476-.383L.941 54.42A1.585 1.585 0 0 0 0 55.881c.004.632.38 1.2.96 1.448l1.755.751-.632 1.809a1.59 1.59 0 0 0 .417 1.689 1.572 1.572 0 0 0 1.708.287l6.311-2.795a3.516 3.516 0 0 0 2.064-2.836l.126-1.185 18.54-8.21-.027.06zm-21.164 9.063a.958.958 0 0 1-.563.773l-4.281 1.896.094-.27c.332-.95-.129-2-1.05-2.394l-.262-.113 4.281-1.895a.952.952 0 0 1 .948.104l.96.709-.127 1.19zM55.892 45.833a1.272 1.272 0 0 0-.756-.695l-3.162-1.07a1.268 1.268 0 0 0-1.608.8 1.277 1.277 0 0 0 .797 1.616l.062.021-18.54 8.21-.956-.706a3.487 3.487 0 0 0-3.476-.383l-6.311 2.794A1.585 1.585 0 0 0 21 57.88c.004.633.38 1.202.96 1.45l1.755.75-.632 1.809a1.59 1.59 0 0 0 .416 1.689 1.573 1.573 0 0 0 1.709.287l6.311-2.795a3.516 3.516 0 0 0 2.064-2.836l.126-1.185 18.54-8.21-.026.06a1.278 1.278 0 0 0 1.16 1.79 1.27 1.27 0 0 0 1.163-.76l1.346-3.068a1.28 1.28 0 0 0 0-1.028zm-24.834 12.13a.959.959 0 0 1-.563.773l-4.281 1.896.094-.27c.332-.95-.13-2-1.05-2.394l-.262-.113 4.28-1.895a.95.95 0 0 1 .95.104l.959.709-.127 1.19z"/>
        <path d="M35.668 12.832a1.87 1.87 0 0 0 .538.149 2.232 2.232 0 0 0 .867-.057c.091-.025.178-.056.26-.092a1.57 1.57 0 0 0 .228-.125c.278-.186.439-.444.439-.707 0-.263-.16-.521-.44-.707a1.478 1.478 0 0 0-.228-.124 2.115 2.115 0 0 0-.54-.149 2.214 2.214 0 0 0-.866.057 1.87 1.87 0 0 0-.258.092c-.083.036-.16.078-.229.124-.28.186-.439.444-.439.707 0 .263.159.52.44.707.069.046.145.088.228.125zM24.334 21.169a1.97 1.97 0 0 0-.54-.15 2.214 2.214 0 0 0-.867.058c-.09.025-.177.056-.26.092a1.55 1.55 0 0 0-.228.124 1.171 1.171 0 0 0-.186.152.955.955 0 0 0-.138.173.784.784 0 0 0-.085.187.672.672 0 0 0 .085.578c.038.06.085.118.138.172.054.055.117.106.186.152a1.645 1.645 0 0 0 .488.217A2.115 2.115 0 0 0 23.5 23a2.21 2.21 0 0 0 .573-.076 1.746 1.746 0 0 0 .488-.217c.279-.186.438-.444.438-.707 0-.263-.16-.521-.438-.707a1.631 1.631 0 0 0-.228-.124z"/>
    </g>
</svg>
