<svg xmlns="http://www.w3.org/2000/svg" width="59" height="64" viewBox="0 0 59 64">
    <g fill="#000" fill-rule="evenodd">
        <path fill-rule="nonzero" d="M58.905 26.1c-.27-1.315-1.72-3.773-4.005-3.773-.316 0-.628.037-.93.108a5.147 5.147 0 0 0-4.505-2.62c-.317 0-.627.03-.93.084l-.006-.154-.013-.235a22.61 22.61 0 0 0-.059-.76 19.345 19.345 0 0 0-.127-1.049l-.022-.15c-.025-.158-.05-.315-.079-.471v-.005l-.011-.061-.007-.027C46.436 7.336 37.95 0 27.777 0h-.025l-.098.002h-.096C17.48.108 9.1 7.409 7.34 16.993l-.008.032c-.032.178-.061.356-.089.535l-.018.124a20.803 20.803 0 0 0-.189 1.832l-.013.23-.011.305-.007.191a14.274 14.274 0 0 0 .004 1.034l.006.104c.007.148.015.296.026.444l.007.07a15.322 15.322 0 0 0 .048.5c.52 4.54 3.077 9.007 5.978 13.541l.04.064.269.418.086.134.042.066.002.003c.32.495.641.99.962 1.483 1.358 2.088 2.762 4.247 3.933 6.35a4.785 4.785 0 0 0 2.454 2.131l1.13 7.83a2.644 2.644 0 0 0-1.33 2.656l.472 3.542A3.92 3.92 0 0 0 25.01 64h5.532a3.92 3.92 0 0 0 3.876-3.389l.472-3.542a2.641 2.641 0 0 0-1.331-2.656l1.13-7.83a4.786 4.786 0 0 0 2.454-2.13c1.172-2.104 2.576-4.263 3.934-6.351.328-.505.657-1.01.984-1.518 0-.001 0-.002.002-.003l.033-.052.056-.086a221.332 221.332 0 0 0 .307-.48c1.043-1.629 2.043-3.25 2.92-4.868H55.95a2.61 2.61 0 0 0 2.247-1.285c.496-.848 1.02-2.18.707-3.71zm-13.37-9.66l-1.065.45a42.305 42.305 0 0 1-5.435 1.871 29.008 29.008 0 0 0-1.906-6.907 29.505 29.505 0 0 0-5.88-9.022c7.015 1.353 12.612 6.723 14.285 13.608zm-11.337 20a37.48 37.48 0 0 1-12.956-.008c-2.192-5.74-2.794-10.667-2.678-14.599a45.29 45.29 0 0 0 9.212.943c3.071 0 6.102-.306 9.071-.912.23 4.604-.654 9.471-2.65 14.576zM24.11 2.87c-.36.378-.739.796-1.128 1.256a1.249 1.249 0 0 0 .956 2.057c.356 0 .71-.151.958-.444a24.629 24.629 0 0 1 2.796-2.826c1.546 1.32 4.987 4.682 7.17 10.016a26.871 26.871 0 0 1 1.744 6.415 43.26 43.26 0 0 1-17.862-.043c.214-1.87.578-3.44.956-4.68a1.252 1.252 0 0 0-2.396-.727 29.245 29.245 0 0 0-1.024 4.805 42.299 42.299 0 0 1-5.198-1.808l-1.064-.45C11.677 9.618 17.187 4.282 24.11 2.869zM9.549 21.742l-.005-.052c-.01-.132-.019-.264-.025-.395l-.005-.089a11.26 11.26 0 0 1-.01-.464c0-.152.002-.303.006-.454.001-.065.004-.13.007-.195.003-.086.005-.172.01-.258.003-.075.008-.15.013-.224.005-.076.009-.153.015-.229l.018-.216c.006-.064.01-.128.017-.192l.517.218a45.51 45.51 0 0 0 5.955 2.046c-.1 2.163.01 4.395.339 6.683.372 2.593 1.02 5.224 1.939 7.881a37.235 37.235 0 0 1-2.952-.897c-2.838-4.42-5.47-8.916-5.84-13.163zm11.049 21.495c-.944-1.693-2.017-3.397-3.097-5.07.634.169 1.272.32 1.912.456a57.134 57.134 0 0 0 2.785 5.75 2.284 2.284 0 0 1-1.6-1.136zm11.338 17.044a1.41 1.41 0 0 1-1.394 1.219h-5.531a1.41 1.41 0 0 1-1.394-1.219l-.473-3.542a.139.139 0 0 1 .035-.114.14.14 0 0 1 .108-.05h8.978a.14.14 0 0 1 .11.05c.028.032.04.07.034.114l-.473 3.543zM23.44 46.91h8.673l-1.034 7.165h-6.605L23.44 46.91zm6.853-2.5h-5.196a56.77 56.77 0 0 1-2.73-5.273 39.985 39.985 0 0 0 10.68.01 60.328 60.328 0 0 1-2.754 5.263zm4.662-1.172a2.285 2.285 0 0 1-1.774 1.16 58.619 58.619 0 0 0 2.814-5.761c.694-.147 1.385-.31 2.072-.493-1.085 1.68-2.164 3.392-3.112 5.093zm5.231-8.366c-1.023.362-2.06.677-3.105.946 1.136-3.243 1.852-6.416 2.138-9.495a32.48 32.48 0 0 0 .079-5.033 45.481 45.481 0 0 0 6.149-2.098l.516-.218.016.182.02.227.014.223c.004.077.01.153.013.23.005.084.007.17.01.255.003.066.006.131.007.197a11.107 11.107 0 0 1-.002.82 5.154 5.154 0 0 0-1.395 1.988 4.522 4.522 0 0 0-4.633 4.117 4.49 4.49 0 0 0 .523 2.515 2.604 2.604 0 0 0 1.98 1.347 91.003 91.003 0 0 1-2.33 3.797zm15.85-6.323a.097.097 0 0 1-.085.045h-13.12a.103.103 0 0 1-.09-.054 2 2 0 0 1 2.354-2.855l.008.002c.02.006.04.01.058.017a1.254 1.254 0 0 0 1.654-1.037 2.657 2.657 0 0 1 1.626-2.147 2.669 2.669 0 0 1 1.023-.205c1.25 0 2.319.848 2.6 2.062a1.25 1.25 0 0 0 1.949.734c.26-.186.567-.284.887-.284.675 0 1.43 1.183 1.552 1.774.155.757-.14 1.477-.416 1.948z"/>
        <path d="M20.076 10.073c.025.092.056.179.092.26.037.082.079.159.125.228s.097.132.152.186c.054.054.112.1.172.138a.822.822 0 0 0 .187.085.672.672 0 0 0 .391 0 .785.785 0 0 0 .187-.085.949.949 0 0 0 .173-.138 1.17 1.17 0 0 0 .152-.186c.046-.07.088-.146.124-.228A2.11 2.11 0 0 0 22 9.5a2.233 2.233 0 0 0-.077-.575 1.87 1.87 0 0 0-.092-.258 1.476 1.476 0 0 0-.124-.228 1.256 1.256 0 0 0-.152-.187.949.949 0 0 0-.173-.138.785.785 0 0 0-.187-.086.668.668 0 0 0-.391 0 .822.822 0 0 0-.187.086.978.978 0 0 0-.172.138 1.256 1.256 0 0 0-.152.187 1.568 1.568 0 0 0-.125.228 1.87 1.87 0 0 0-.149.538 2.417 2.417 0 0 0 0 .587c.013.096.033.19.057.28z"/>
        <path fill-rule="nonzero" d="M15.118 44.24a4.744 4.744 0 0 0-.766-.04c-.758-1.89-2.644-3.2-4.817-3.2-1.915 0-3.61 1.001-4.506 2.555a4.144 4.144 0 0 0-.93-.105c-2.283 0-3.735 2.397-4.004 3.68-.314 1.492.211 2.79.707 3.617A2.623 2.623 0 0 0 3.048 52h13.12c.959 0 1.838-.51 2.294-1.333a4.288 4.288 0 0 0 .522-2.452c-.173-2.026-1.799-3.698-3.866-3.975zm1.14 5.27a.103.103 0 0 1-.09.052H3.048a.097.097 0 0 1-.084-.044c-.275-.46-.571-1.162-.416-1.9.121-.577.877-1.73 1.552-1.73.32 0 .627.096.887.277.34.238.78.294 1.171.15a1.23 1.23 0 0 0 .778-.866c.28-1.184 1.35-2.011 2.599-2.011 1.354 0 2.493.986 2.649 2.294.044.367.256.696.578.892.321.197.717.24 1.075.12a2.06 2.06 0 0 1 .94-.088c.915.122 1.635.863 1.712 1.76.033.384-.047.762-.231 1.093z"/>
    </g>
</svg>
