<svg xmlns="http://www.w3.org/2000/svg" width="18" height="19" viewBox="0 0 18 19">
    <path fill="#000" fill-rule="nonzero" d="M17.726 17.306l-4.437-4.703a7.735 7.735 0 0 0 1.766-4.932C15.055 3.441 11.678 0 7.528 0 3.377 0 0 3.441 0 7.671s3.377 7.671 7.528 7.671a7.351 7.351 0 0 0 4.312-1.388l4.471 4.74a.966.966 0 0 0 1.388.027c.39-.383.403-1.017.027-1.415zM7.528 2.001c3.067 0 5.563 2.544 5.563 5.67 0 3.127-2.496 5.67-5.563 5.67-3.068 0-5.564-2.543-5.564-5.67 0-3.126 2.496-5.67 5.564-5.67z"/>
</svg>
