<svg xmlns="http://www.w3.org/2000/svg" width="33" height="33" viewBox="0 0 33 33">
    <g fill="none" fill-rule="evenodd">
        <circle cx="16.5" cy="16.5" r="16.5" fill="#665CA7" fill-rule="nonzero"/>
        <path fill="#FFF" d="M25.017 8.537c-.576-.53-2.907-2.222-8.095-2.245 0 0-6.12-.369-9.102 2.368-1.66 1.66-2.244 4.089-2.306 7.103-.062 3.014-.142 8.66 5.3 10.19l.006.002-.003 2.336s-.034.946.587 1.138c.754.234 1.197-.485 1.916-1.26.394-.424.939-1.05 1.35-1.527 3.722.312 6.585-.403 6.91-.509.753-.244 5.004-.789 5.696-6.433.713-5.822-.345-9.503-2.26-11.163zm.63 10.742c-.585 4.713-4.033 5.012-4.669 5.215-.27.087-2.785.712-5.947.506 0 0-2.356 2.842-3.092 3.582-.114.116-.249.162-.34.14-.126-.031-.162-.181-.159-.4l.02-3.883c-4.604-1.279-4.336-6.084-4.284-8.6.052-2.517.525-4.58 1.93-5.965 2.522-2.285 7.72-1.944 7.72-1.944 4.389.019 6.493 1.342 6.98 1.784 1.62 1.386 2.444 4.704 1.84 9.565zm-8.285.283s.413.036.634-.24l.433-.544c.21-.27.714-.442 1.207-.167.654.368 1.5.948 2.078 1.489.319.27.393.665.176 1.083l-.003.009a4.458 4.458 0 0 1-.9 1.11l-.009.006c-.425.355-.914.561-1.438.39l-.01-.013c-.939-.266-3.192-1.415-4.63-2.56-2.349-1.855-4.018-4.913-4.482-6.552l-.013-.01c-.17-.525.037-1.015.39-1.438l.007-.008a4.54 4.54 0 0 1 1.11-.901l.008-.002c.418-.218.814-.144 1.083.175.355.367 1.022 1.249 1.49 2.078.274.493.103.998-.168 1.207l-.545.433c-.275.222-.239.634-.239.634s.806 3.051 3.821 3.821zm4.745-2.53a.293.293 0 0 0 .292-.296c-.015-1.93-.607-3.48-1.758-4.603-1.148-1.12-2.594-1.693-4.298-1.705h-.001a.294.294 0 0 0-.003.587c1.547.011 2.857.528 3.893 1.539 1.035 1.009 1.566 2.418 1.58 4.188.001.16.132.29.293.29h.002zm-1.544-.602h-.007a.292.292 0 0 1-.286-.3c.022-1.004-.264-1.815-.876-2.483-.609-.666-1.445-1.03-2.557-1.111a.294.294 0 0 1 .043-.586c1.25.092 2.242.53 2.948 1.3.708.774 1.054 1.747 1.028 2.892a.292.292 0 0 1-.293.288zm-1.505-.505a.294.294 0 0 1-.293-.279c-.05-.995-.519-1.484-1.477-1.534a.294.294 0 0 1 .032-.586c1.263.067 1.966.79 2.03 2.091a.293.293 0 0 1-.277.308h-.015z"/>
    </g>
</svg>
