<svg xmlns="http://www.w3.org/2000/svg" width="33" height="33" viewBox="0 0 33 33">
    <g fill="none" fill-rule="nonzero">
        <circle cx="16.5" cy="16.5" r="16.5" fill="#CE1112"/>
        <path fill="#FFF" d="M21.694 10.154H11.306c-2.038 0-3.69 1.668-3.69 3.725v5.242c0 2.057 1.652 3.725 3.69 3.725h10.388c2.038 0 3.69-1.668 3.69-3.725v-5.242c0-2.057-1.652-3.725-3.69-3.725zm-2.496 6.601l-4.859 2.34a.195.195 0 0 1-.279-.178v-4.825c0-.147.154-.242.284-.176l4.859 2.486a.198.198 0 0 1-.005.353z"/>
    </g>
</svg>
