<svg xmlns="http://www.w3.org/2000/svg" xmlns:xlink="http://www.w3.org/1999/xlink" width="107" height="102" viewBox="0 0 107 102">
    <defs>
        <path id="a" d="M22.624 4.79C2.602 14.654-5.631 38.882 4.235 58.903c9.865 20.02 34.091 28.254 54.11 18.389C78.367 67.428 86.602 43.2 76.739 23.178 69.704 8.902 55.365.619 40.456.62a40.25 40.25 0 0 0-17.832 4.17"/>
        <path id="c" d="M22.624 4.79C2.602 14.654-5.631 38.882 4.235 58.903c9.865 20.02 34.091 28.254 54.11 18.389C78.367 67.428 86.602 43.2 76.739 23.178 69.704 8.902 55.365.619 40.456.62a40.25 40.25 0 0 0-17.832 4.17"/>
        <path id="e" d="M22.624 4.79C2.602 14.654-5.631 38.882 4.235 58.903c9.865 20.02 34.091 28.254 54.11 18.389C78.367 67.428 86.602 43.2 76.739 23.178 69.704 8.902 55.365.619 40.456.62a40.25 40.25 0 0 0-17.832 4.17"/>
        <path id="g" d="M22.624 4.79C2.602 14.654-5.631 38.882 4.235 58.903c9.865 20.02 34.091 28.254 54.11 18.389C78.367 67.428 86.602 43.2 76.739 23.178 69.704 8.902 55.365.619 40.456.62a40.25 40.25 0 0 0-17.832 4.17"/>
        <path id="i" d="M22.624 4.79C2.602 14.654-5.631 38.882 4.235 58.903c9.865 20.02 34.091 28.254 54.11 18.389C78.367 67.428 86.602 43.2 76.739 23.178 69.704 8.902 55.365.619 40.456.62a40.25 40.25 0 0 0-17.832 4.17"/>
        <path id="k" d="M22.624 4.79C2.602 14.654-5.631 38.882 4.235 58.903c9.865 20.02 34.091 28.254 54.11 18.389C78.367 67.428 86.602 43.2 76.739 23.178 69.704 8.902 55.365.619 40.456.62a40.25 40.25 0 0 0-17.832 4.17"/>
        <path id="m" d="M22.624 4.79C2.602 14.654-5.631 38.882 4.235 58.903c9.865 20.02 34.091 28.254 54.11 18.389C78.367 67.428 86.602 43.2 76.739 23.178 69.704 8.902 55.365.619 40.456.62a40.25 40.25 0 0 0-17.832 4.17"/>
        <path id="o" d="M22.624 4.79C2.602 14.654-5.631 38.882 4.235 58.903c9.865 20.02 34.091 28.254 54.11 18.389C78.367 67.428 86.602 43.2 76.739 23.178 69.704 8.902 55.365.619 40.456.62a40.25 40.25 0 0 0-17.832 4.17"/>
        <path id="q" d="M22.624 4.79C2.602 14.654-5.631 38.882 4.235 58.903c9.865 20.02 34.091 28.254 54.11 18.389C78.367 67.428 86.602 43.2 76.739 23.178 69.704 8.902 55.365.619 40.456.62a40.25 40.25 0 0 0-17.832 4.17"/>
        <path id="s" d="M22.624 4.79C2.602 14.654-5.631 38.882 4.235 58.903c9.865 20.02 34.091 28.254 54.11 18.389C78.367 67.428 86.602 43.2 76.739 23.178 69.704 8.902 55.365.619 40.456.62a40.25 40.25 0 0 0-17.832 4.17"/>
        <path id="u" d="M22.624 4.79C2.602 14.654-5.631 38.882 4.235 58.903c9.865 20.02 34.091 28.254 54.11 18.389C78.367 67.428 86.602 43.2 76.739 23.178 69.704 8.902 55.365.619 40.456.62a40.25 40.25 0 0 0-17.832 4.17"/>
        <path id="w" d="M22.624 4.79C2.602 14.654-5.631 38.882 4.235 58.903c9.865 20.02 34.091 28.254 54.11 18.389C78.367 67.428 86.602 43.2 76.739 23.178 69.704 8.902 55.365.619 40.456.62a40.25 40.25 0 0 0-17.832 4.17"/>
        <path id="y" d="M22.624 4.79C2.602 14.654-5.631 38.882 4.235 58.903c9.865 20.02 34.091 28.254 54.11 18.389C78.367 67.428 86.602 43.2 76.739 23.178 69.704 8.902 55.365.619 40.456.62a40.25 40.25 0 0 0-17.832 4.17"/>
        <path id="A" d="M22.624 4.79C2.602 14.654-5.631 38.882 4.235 58.903c9.865 20.02 34.091 28.254 54.11 18.389C78.367 67.428 86.602 43.2 76.739 23.178 69.704 8.902 55.365.619 40.456.62a40.25 40.25 0 0 0-17.832 4.17"/>
        <path id="C" d="M22.624 4.79C2.602 14.654-5.631 38.882 4.235 58.903c9.865 20.02 34.091 28.254 54.11 18.389C78.367 67.428 86.602 43.2 76.739 23.178 69.704 8.902 55.365.619 40.456.62a40.25 40.25 0 0 0-17.832 4.17"/>
        <path id="E" d="M22.624 4.79C2.602 14.654-5.631 38.882 4.235 58.903c9.865 20.02 34.091 28.254 54.11 18.389C78.367 67.428 86.602 43.2 76.739 23.178 69.704 8.902 55.365.619 40.456.62a40.25 40.25 0 0 0-17.832 4.17"/>
        <path id="G" d="M22.624 4.79C2.602 14.654-5.631 38.882 4.235 58.903c9.865 20.02 34.091 28.254 54.11 18.389C78.367 67.428 86.602 43.2 76.739 23.178 69.704 8.902 55.365.619 40.456.62a40.25 40.25 0 0 0-17.832 4.17"/>
        <path id="I" d="M22.624 4.79C2.602 14.654-5.631 38.882 4.235 58.903c9.865 20.02 34.091 28.254 54.11 18.389C78.367 67.428 86.602 43.2 76.739 23.178 69.704 8.902 55.365.619 40.456.62a40.25 40.25 0 0 0-17.832 4.17"/>
        <path id="K" d="M22.624 4.79C2.602 14.654-5.631 38.882 4.235 58.903c9.865 20.02 34.091 28.254 54.11 18.389C78.367 67.428 86.602 43.2 76.739 23.178 69.704 8.902 55.365.619 40.456.62a40.25 40.25 0 0 0-17.832 4.17"/>
        <path id="M" d="M22.624 4.79C2.602 14.654-5.631 38.882 4.235 58.903c9.865 20.02 34.091 28.254 54.11 18.389C78.367 67.428 86.602 43.2 76.739 23.178 69.704 8.902 55.365.619 40.456.62a40.25 40.25 0 0 0-17.832 4.17"/>
        <path id="O" d="M22.624 4.79C2.602 14.654-5.631 38.882 4.235 58.903c9.865 20.02 34.091 28.254 54.11 18.389C78.367 67.428 86.602 43.2 76.739 23.178 69.704 8.902 55.365.619 40.456.62a40.25 40.25 0 0 0-17.832 4.17"/>
        <path id="Q" d="M22.624 4.79C2.602 14.654-5.631 38.882 4.235 58.903c9.865 20.02 34.091 28.254 54.11 18.389C78.367 67.428 86.602 43.2 76.739 23.178 69.704 8.902 55.365.619 40.456.62a40.25 40.25 0 0 0-17.832 4.17"/>
        <path id="S" d="M22.624 4.79C2.602 14.654-5.631 38.882 4.235 58.903c9.865 20.02 34.091 28.254 54.11 18.389C78.367 67.428 86.602 43.2 76.739 23.178 69.704 8.902 55.365.619 40.456.62a40.25 40.25 0 0 0-17.832 4.17"/>
        <path id="U" d="M22.624 4.79C2.602 14.654-5.631 38.882 4.235 58.903c9.865 20.02 34.091 28.254 54.11 18.389C78.367 67.428 86.602 43.2 76.739 23.178 69.704 8.902 55.365.619 40.456.62a40.25 40.25 0 0 0-17.832 4.17"/>
        <path id="W" d="M22.624 4.79C2.602 14.654-5.631 38.882 4.235 58.903c9.865 20.02 34.091 28.254 54.11 18.389C78.367 67.428 86.602 43.2 76.739 23.178 69.704 8.902 55.365.619 40.456.62a40.25 40.25 0 0 0-17.832 4.17"/>
        <path id="Y" d="M22.624 4.79C2.602 14.654-5.631 38.882 4.235 58.903c9.865 20.02 34.091 28.254 54.11 18.389C78.367 67.428 86.602 43.2 76.739 23.178 69.704 8.902 55.365.619 40.456.62a40.25 40.25 0 0 0-17.832 4.17"/>
        <path id="aa" d="M22.624 4.79C2.602 14.654-5.631 38.882 4.235 58.903c9.865 20.02 34.091 28.254 54.11 18.389C78.367 67.428 86.602 43.2 76.739 23.178 69.704 8.902 55.365.619 40.456.62a40.25 40.25 0 0 0-17.832 4.17"/>
        <path id="ac" d="M22.624 4.79C2.602 14.654-5.631 38.882 4.235 58.903c9.865 20.02 34.091 28.254 54.11 18.389C78.367 67.428 86.602 43.2 76.739 23.178 69.704 8.902 55.365.619 40.456.62a40.25 40.25 0 0 0-17.832 4.17"/>
        <path id="ae" d="M22.624 4.79C2.602 14.654-5.631 38.882 4.235 58.903c9.865 20.02 34.091 28.254 54.11 18.389C78.367 67.428 86.602 43.2 76.739 23.178 69.704 8.902 55.365.619 40.456.62a40.25 40.25 0 0 0-17.832 4.17"/>
        <path id="ag" d="M22.624 4.79C2.602 14.654-5.631 38.882 4.235 58.903c9.865 20.02 34.091 28.254 54.11 18.389C78.367 67.428 86.602 43.2 76.739 23.178 69.704 8.902 55.365.619 40.456.62a40.25 40.25 0 0 0-17.832 4.17"/>
        <path id="ai" d="M22.624 4.79C2.602 14.654-5.631 38.882 4.235 58.903c9.865 20.02 34.091 28.254 54.11 18.389C78.367 67.428 86.602 43.2 76.739 23.178 69.704 8.902 55.365.619 40.456.62a40.25 40.25 0 0 0-17.832 4.17"/>
        <path id="ak" d="M22.624 4.79C2.602 14.654-5.631 38.882 4.235 58.903c9.865 20.02 34.091 28.254 54.11 18.389C78.367 67.428 86.602 43.2 76.739 23.178 69.704 8.902 55.365.619 40.456.62a40.25 40.25 0 0 0-17.832 4.17"/>
        <path id="am" d="M22.624 4.79C2.602 14.654-5.631 38.882 4.235 58.903c9.865 20.02 34.091 28.254 54.11 18.389C78.367 67.428 86.602 43.2 76.739 23.178 69.704 8.902 55.365.619 40.456.62a40.25 40.25 0 0 0-17.832 4.17"/>
        <path id="ao" d="M22.624 4.79C2.602 14.654-5.631 38.882 4.235 58.903c9.865 20.02 34.091 28.254 54.11 18.389C78.367 67.428 86.602 43.2 76.739 23.178 69.704 8.902 55.365.619 40.456.62a40.25 40.25 0 0 0-17.832 4.17"/>
        <path id="aq" d="M22.624 4.79C2.602 14.654-5.631 38.882 4.235 58.903c9.865 20.02 34.091 28.254 54.11 18.389C78.367 67.428 86.602 43.2 76.739 23.178 69.704 8.902 55.365.619 40.456.62a40.25 40.25 0 0 0-17.832 4.17"/>
        <path id="as" d="M22.624 4.79C2.602 14.654-5.631 38.882 4.235 58.903c9.865 20.02 34.091 28.254 54.11 18.389C78.367 67.428 86.602 43.2 76.739 23.178 69.704 8.902 55.365.619 40.456.62a40.25 40.25 0 0 0-17.832 4.17"/>
        <path id="au" d="M22.624 4.79C2.602 14.654-5.631 38.882 4.235 58.903c9.865 20.02 34.091 28.254 54.11 18.389C78.367 67.428 86.602 43.2 76.739 23.178 69.704 8.902 55.365.619 40.456.62a40.25 40.25 0 0 0-17.832 4.17"/>
        <path id="aw" d="M22.624 4.79C2.602 14.654-5.631 38.882 4.235 58.903c9.865 20.02 34.091 28.254 54.11 18.389C78.367 67.428 86.602 43.2 76.739 23.178 69.704 8.902 55.365.619 40.456.62a40.25 40.25 0 0 0-17.832 4.17"/>
        <path id="ay" d="M22.624 4.79C2.602 14.654-5.631 38.882 4.235 58.903c9.865 20.02 34.091 28.254 54.11 18.389C78.367 67.428 86.602 43.2 76.739 23.178 69.704 8.902 55.365.619 40.456.62a40.25 40.25 0 0 0-17.832 4.17"/>
        <path id="aA" d="M22.624 4.79C2.602 14.654-5.631 38.882 4.235 58.903c9.865 20.02 34.091 28.254 54.11 18.389C78.367 67.428 86.602 43.2 76.739 23.178 69.704 8.902 55.365.619 40.456.62a40.25 40.25 0 0 0-17.832 4.17"/>
        <path id="aC" d="M22.624 4.79C2.602 14.654-5.631 38.882 4.235 58.903c9.865 20.02 34.091 28.254 54.11 18.389C78.367 67.428 86.602 43.2 76.739 23.178 69.704 8.902 55.365.619 40.456.62a40.25 40.25 0 0 0-17.832 4.17"/>
        <path id="aE" d="M22.624 4.79C2.602 14.654-5.631 38.882 4.235 58.903c9.865 20.02 34.091 28.254 54.11 18.389C78.367 67.428 86.602 43.2 76.739 23.178 69.704 8.902 55.365.619 40.456.62a40.25 40.25 0 0 0-17.832 4.17"/>
        <path id="aG" d="M22.624 4.79C2.602 14.654-5.631 38.882 4.235 58.903c9.865 20.02 34.091 28.254 54.11 18.389C78.367 67.428 86.602 43.2 76.739 23.178 69.704 8.902 55.365.619 40.456.62a40.25 40.25 0 0 0-17.832 4.17"/>
        <path id="aI" d="M22.624 4.79C2.602 14.654-5.631 38.882 4.235 58.903c9.865 20.02 34.091 28.254 54.11 18.389C78.367 67.428 86.602 43.2 76.739 23.178 69.704 8.902 55.365.619 40.456.62a40.25 40.25 0 0 0-17.832 4.17"/>
        <path id="aK" d="M22.624 4.79C2.602 14.654-5.631 38.882 4.235 58.903c9.865 20.02 34.091 28.254 54.11 18.389C78.367 67.428 86.602 43.2 76.739 23.178 69.704 8.902 55.365.619 40.456.62a40.25 40.25 0 0 0-17.832 4.17"/>
        <path id="aM" d="M22.624 4.79C2.602 14.654-5.631 38.882 4.235 58.903c9.865 20.02 34.091 28.254 54.11 18.389C78.367 67.428 86.602 43.2 76.739 23.178 69.704 8.902 55.365.619 40.456.62a40.25 40.25 0 0 0-17.832 4.17"/>
        <path id="aO" d="M22.624 4.79C2.602 14.654-5.631 38.882 4.235 58.903c9.865 20.02 34.091 28.254 54.11 18.389C78.367 67.428 86.602 43.2 76.739 23.178 69.704 8.902 55.365.619 40.456.62a40.25 40.25 0 0 0-17.832 4.17"/>
        <path id="aQ" d="M22.624 4.79C2.602 14.654-5.631 38.882 4.235 58.903c9.865 20.02 34.091 28.254 54.11 18.389C78.367 67.428 86.602 43.2 76.739 23.178 69.704 8.902 55.365.619 40.456.62a40.25 40.25 0 0 0-17.832 4.17"/>
        <path id="aS" d="M22.624 4.79C2.602 14.654-5.631 38.882 4.235 58.903c9.865 20.02 34.091 28.254 54.11 18.389C78.367 67.428 86.602 43.2 76.739 23.178 69.704 8.902 55.365.619 40.456.62a40.25 40.25 0 0 0-17.832 4.17"/>
        <path id="aU" d="M22.624 4.79C2.602 14.654-5.631 38.882 4.235 58.903c9.865 20.02 34.091 28.254 54.11 18.389C78.367 67.428 86.602 43.2 76.739 23.178 69.704 8.902 55.365.619 40.456.62a40.25 40.25 0 0 0-17.832 4.17"/>
        <path id="aW" d="M22.624 4.79C2.602 14.654-5.631 38.882 4.235 58.903c9.865 20.02 34.091 28.254 54.11 18.389C78.367 67.428 86.602 43.2 76.739 23.178 69.704 8.902 55.365.619 40.456.62a40.25 40.25 0 0 0-17.832 4.17"/>
        <path id="aY" d="M22.624 4.79C2.602 14.654-5.631 38.882 4.235 58.903c9.865 20.02 34.091 28.254 54.11 18.389C78.367 67.428 86.602 43.2 76.739 23.178 69.704 8.902 55.365.619 40.456.62a40.25 40.25 0 0 0-17.832 4.17"/>
        <path id="ba" d="M22.624 4.79C2.602 14.654-5.631 38.882 4.235 58.903c9.865 20.02 34.091 28.254 54.11 18.389C78.367 67.428 86.602 43.2 76.739 23.178 69.704 8.902 55.365.619 40.456.62a40.25 40.25 0 0 0-17.832 4.17"/>
        <path id="bc" d="M22.624 4.79C2.602 14.654-5.631 38.882 4.235 58.903c9.865 20.02 34.091 28.254 54.11 18.389C78.367 67.428 86.602 43.2 76.739 23.178 69.704 8.902 55.365.619 40.456.62a40.25 40.25 0 0 0-17.832 4.17"/>
        <path id="be" d="M22.624 4.79C2.602 14.654-5.631 38.882 4.235 58.903c9.865 20.02 34.091 28.254 54.11 18.389C78.367 67.428 86.602 43.2 76.739 23.178 69.704 8.902 55.365.619 40.456.62a40.25 40.25 0 0 0-17.832 4.17"/>
        <path id="bg" d="M22.624 4.79C2.602 14.654-5.631 38.882 4.235 58.903c9.865 20.02 34.091 28.254 54.11 18.389C78.367 67.428 86.602 43.2 76.739 23.178 69.704 8.902 55.365.619 40.456.62a40.25 40.25 0 0 0-17.832 4.17"/>
        <path id="bi" d="M22.624 4.79C2.602 14.654-5.631 38.882 4.235 58.903c9.865 20.02 34.091 28.254 54.11 18.389C78.367 67.428 86.602 43.2 76.739 23.178 69.704 8.902 55.365.619 40.456.62a40.25 40.25 0 0 0-17.832 4.17"/>
        <path id="bk" d="M22.624 4.79C2.602 14.654-5.631 38.882 4.235 58.903c9.865 20.02 34.091 28.254 54.11 18.389C78.367 67.428 86.602 43.2 76.739 23.178 69.704 8.902 55.365.619 40.456.62a40.25 40.25 0 0 0-17.832 4.17"/>
        <path id="bm" d="M22.624 4.79C2.602 14.654-5.631 38.882 4.235 58.903c9.865 20.02 34.091 28.254 54.11 18.389C78.367 67.428 86.602 43.2 76.739 23.178 69.704 8.902 55.365.619 40.456.62a40.25 40.25 0 0 0-17.832 4.17"/>
        <path id="bo" d="M22.624 4.79C2.602 14.654-5.631 38.882 4.235 58.903c9.865 20.02 34.091 28.254 54.11 18.389C78.367 67.428 86.602 43.2 76.739 23.178 69.704 8.902 55.365.619 40.456.62a40.25 40.25 0 0 0-17.832 4.17"/>
        <path id="bq" d="M22.624 4.79C2.602 14.654-5.631 38.882 4.235 58.903c9.865 20.02 34.091 28.254 54.11 18.389C78.367 67.428 86.602 43.2 76.739 23.178 69.704 8.902 55.365.619 40.456.62a40.25 40.25 0 0 0-17.832 4.17"/>
        <path id="bs" d="M22.624 4.79C2.602 14.654-5.631 38.882 4.235 58.903c9.865 20.02 34.091 28.254 54.11 18.389C78.367 67.428 86.602 43.2 76.739 23.178 69.704 8.902 55.365.619 40.456.62a40.25 40.25 0 0 0-17.832 4.17"/>
        <path id="bu" d="M22.624 4.79C2.602 14.654-5.631 38.882 4.235 58.903c9.865 20.02 34.091 28.254 54.11 18.389C78.367 67.428 86.602 43.2 76.739 23.178 69.704 8.902 55.365.619 40.456.62a40.25 40.25 0 0 0-17.832 4.17"/>
        <path id="bw" d="M22.624 4.79C2.602 14.654-5.631 38.882 4.235 58.903c9.865 20.02 34.091 28.254 54.11 18.389C78.367 67.428 86.602 43.2 76.739 23.178 69.704 8.902 55.365.619 40.456.62a40.25 40.25 0 0 0-17.832 4.17"/>
        <path id="by" d="M22.624 4.79C2.602 14.654-5.631 38.882 4.235 58.903c9.865 20.02 34.091 28.254 54.11 18.389C78.367 67.428 86.602 43.2 76.739 23.178 69.704 8.902 55.365.619 40.456.62a40.25 40.25 0 0 0-17.832 4.17"/>
        <path id="bA" d="M22.624 4.79C2.602 14.654-5.631 38.882 4.235 58.903c9.865 20.02 34.091 28.254 54.11 18.389C78.367 67.428 86.602 43.2 76.739 23.178 69.704 8.902 55.365.619 40.456.62a40.25 40.25 0 0 0-17.832 4.17"/>
        <path id="bC" d="M22.624 4.79C2.602 14.654-5.631 38.882 4.235 58.903c9.865 20.02 34.091 28.254 54.11 18.389C78.367 67.428 86.602 43.2 76.739 23.178 69.704 8.902 55.365.619 40.456.62a40.25 40.25 0 0 0-17.832 4.17"/>
        <path id="bE" d="M22.624 4.79C2.602 14.654-5.631 38.882 4.235 58.903c9.865 20.02 34.091 28.254 54.11 18.389C78.367 67.428 86.602 43.2 76.739 23.178 69.704 8.902 55.365.619 40.456.62a40.25 40.25 0 0 0-17.832 4.17"/>
        <path id="bG" d="M22.624 4.79C2.602 14.654-5.631 38.882 4.235 58.903c9.865 20.02 34.091 28.254 54.11 18.389C78.367 67.428 86.602 43.2 76.739 23.178 69.704 8.902 55.365.619 40.456.62a40.25 40.25 0 0 0-17.832 4.17"/>
        <path id="bI" d="M22.624 4.79C2.602 14.654-5.631 38.882 4.235 58.903c9.865 20.02 34.091 28.254 54.11 18.389C78.367 67.428 86.602 43.2 76.739 23.178 69.704 8.902 55.365.619 40.456.62a40.25 40.25 0 0 0-17.832 4.17"/>
        <path id="bK" d="M22.624 4.79C2.602 14.654-5.631 38.882 4.235 58.903c9.865 20.02 34.091 28.254 54.11 18.389C78.367 67.428 86.602 43.2 76.739 23.178 69.704 8.902 55.365.619 40.456.62a40.25 40.25 0 0 0-17.832 4.17"/>
        <path id="bM" d="M22.624 4.79C2.602 14.654-5.631 38.882 4.235 58.903c9.865 20.02 34.091 28.254 54.11 18.389C78.367 67.428 86.602 43.2 76.739 23.178 69.704 8.902 55.365.619 40.456.62a40.25 40.25 0 0 0-17.832 4.17"/>
        <path id="bO" d="M22.624 4.79C2.602 14.654-5.631 38.882 4.235 58.903c9.865 20.02 34.091 28.254 54.11 18.389C78.367 67.428 86.602 43.2 76.739 23.178 69.704 8.902 55.365.619 40.456.62a40.25 40.25 0 0 0-17.832 4.17"/>
        <path id="bQ" d="M22.624 4.79C2.602 14.654-5.631 38.882 4.235 58.903c9.865 20.02 34.091 28.254 54.11 18.389C78.367 67.428 86.602 43.2 76.739 23.178 69.704 8.902 55.365.619 40.456.62a40.25 40.25 0 0 0-17.832 4.17"/>
        <path id="bS" d="M22.624 4.79C2.602 14.654-5.631 38.882 4.235 58.903c9.865 20.02 34.091 28.254 54.11 18.389C78.367 67.428 86.602 43.2 76.739 23.178 69.704 8.902 55.365.619 40.456.62a40.25 40.25 0 0 0-17.832 4.17"/>
        <path id="bU" d="M22.624 4.79C2.602 14.654-5.631 38.882 4.235 58.903c9.865 20.02 34.091 28.254 54.11 18.389C78.367 67.428 86.602 43.2 76.739 23.178 69.704 8.902 55.365.619 40.456.62a40.25 40.25 0 0 0-17.832 4.17"/>
        <path id="bW" d="M22.624 4.79C2.602 14.654-5.631 38.882 4.235 58.903c9.865 20.02 34.091 28.254 54.11 18.389C78.367 67.428 86.602 43.2 76.739 23.178 69.704 8.902 55.365.619 40.456.62a40.25 40.25 0 0 0-17.832 4.17"/>
        <path id="bY" d="M22.624 4.79C2.602 14.654-5.631 38.882 4.235 58.903c9.865 20.02 34.091 28.254 54.11 18.389C78.367 67.428 86.602 43.2 76.739 23.178 69.704 8.902 55.365.619 40.456.62a40.25 40.25 0 0 0-17.832 4.17"/>
        <path id="ca" d="M22.624 4.79C2.602 14.654-5.631 38.882 4.235 58.903c9.865 20.02 34.091 28.254 54.11 18.389C78.367 67.428 86.602 43.2 76.739 23.178 69.704 8.902 55.365.619 40.456.62a40.25 40.25 0 0 0-17.832 4.17"/>
        <path id="cc" d="M22.624 4.79C2.602 14.654-5.631 38.882 4.235 58.903c9.865 20.02 34.091 28.254 54.11 18.389C78.367 67.428 86.602 43.2 76.739 23.178 69.704 8.902 55.365.619 40.456.62a40.25 40.25 0 0 0-17.832 4.17"/>
        <path id="ce" d="M22.624 4.79C2.602 14.654-5.631 38.882 4.235 58.903c9.865 20.02 34.091 28.254 54.11 18.389C78.367 67.428 86.602 43.2 76.739 23.178 69.704 8.902 55.365.619 40.456.62a40.25 40.25 0 0 0-17.832 4.17"/>
        <path id="cg" d="M22.624 4.79C2.602 14.654-5.631 38.882 4.235 58.903c9.865 20.02 34.091 28.254 54.11 18.389C78.367 67.428 86.602 43.2 76.739 23.178 69.704 8.902 55.365.619 40.456.62a40.25 40.25 0 0 0-17.832 4.17"/>
        <path id="ci" d="M22.624 4.79C2.602 14.654-5.631 38.882 4.235 58.903c9.865 20.02 34.091 28.254 54.11 18.389C78.367 67.428 86.602 43.2 76.739 23.178 69.704 8.902 55.365.619 40.456.62a40.25 40.25 0 0 0-17.832 4.17"/>
        <path id="ck" d="M22.624 4.79C2.602 14.654-5.631 38.882 4.235 58.903c9.865 20.02 34.091 28.254 54.11 18.389C78.367 67.428 86.602 43.2 76.739 23.178 69.704 8.902 55.365.619 40.456.62a40.25 40.25 0 0 0-17.832 4.17"/>
        <path id="cm" d="M22.624 4.79C2.602 14.654-5.631 38.882 4.235 58.903c9.865 20.02 34.091 28.254 54.11 18.389C78.367 67.428 86.602 43.2 76.739 23.178 69.704 8.902 55.365.619 40.456.62a40.25 40.25 0 0 0-17.832 4.17"/>
        <path id="co" d="M22.624 4.79C2.602 14.654-5.631 38.882 4.235 58.903c9.865 20.02 34.091 28.254 54.11 18.389C78.367 67.428 86.602 43.2 76.739 23.178 69.704 8.902 55.365.619 40.456.62a40.25 40.25 0 0 0-17.832 4.17"/>
        <path id="cq" d="M22.624 4.79C2.602 14.654-5.631 38.882 4.235 58.903c9.865 20.02 34.091 28.254 54.11 18.389C78.367 67.428 86.602 43.2 76.739 23.178 69.704 8.902 55.365.619 40.456.62a40.25 40.25 0 0 0-17.832 4.17"/>
        <path id="cs" d="M22.624 4.79C2.602 14.654-5.631 38.882 4.235 58.903c9.865 20.02 34.091 28.254 54.11 18.389C78.367 67.428 86.602 43.2 76.739 23.178 69.704 8.902 55.365.619 40.456.62a40.25 40.25 0 0 0-17.832 4.17"/>
        <path id="cu" d="M22.624 4.79C2.602 14.654-5.631 38.882 4.235 58.903c9.865 20.02 34.091 28.254 54.11 18.389C78.367 67.428 86.602 43.2 76.739 23.178 69.704 8.902 55.365.619 40.456.62a40.25 40.25 0 0 0-17.832 4.17"/>
        <path id="cw" d="M22.624 4.79C2.602 14.654-5.631 38.882 4.235 58.903c9.865 20.02 34.091 28.254 54.11 18.389C78.367 67.428 86.602 43.2 76.739 23.178 69.704 8.902 55.365.619 40.456.62a40.25 40.25 0 0 0-17.832 4.17"/>
        <path id="cy" d="M22.624 4.79C2.602 14.654-5.631 38.882 4.235 58.903c9.865 20.02 34.091 28.254 54.11 18.389C78.367 67.428 86.602 43.2 76.739 23.178 69.704 8.902 55.365.619 40.456.62a40.25 40.25 0 0 0-17.832 4.17"/>
        <path id="cA" d="M22.624 4.79C2.602 14.654-5.631 38.882 4.235 58.903c9.865 20.02 34.091 28.254 54.11 18.389C78.367 67.428 86.602 43.2 76.739 23.178 69.704 8.902 55.365.619 40.456.62a40.25 40.25 0 0 0-17.832 4.17"/>
        <path id="cC" d="M22.624 4.79C2.602 14.654-5.631 38.882 4.235 58.903c9.865 20.02 34.091 28.254 54.11 18.389C78.367 67.428 86.602 43.2 76.739 23.178 69.704 8.902 55.365.619 40.456.62a40.25 40.25 0 0 0-17.832 4.17"/>
        <path id="cE" d="M22.624 4.79C2.602 14.654-5.631 38.882 4.235 58.903c9.865 20.02 34.091 28.254 54.11 18.389C78.367 67.428 86.602 43.2 76.739 23.178 69.704 8.902 55.365.619 40.456.62a40.25 40.25 0 0 0-17.832 4.17"/>
        <path id="cG" d="M22.624 4.79C2.602 14.654-5.631 38.882 4.235 58.903c9.865 20.02 34.091 28.254 54.11 18.389C78.367 67.428 86.602 43.2 76.739 23.178 69.704 8.902 55.365.619 40.456.62a40.25 40.25 0 0 0-17.832 4.17"/>
        <path id="cI" d="M22.624 4.79C2.602 14.654-5.631 38.882 4.235 58.903c9.865 20.02 34.091 28.254 54.11 18.389C78.367 67.428 86.602 43.2 76.739 23.178 69.704 8.902 55.365.619 40.456.62a40.25 40.25 0 0 0-17.832 4.17"/>
        <path id="cK" d="M22.624 4.79C2.602 14.654-5.631 38.882 4.235 58.903c9.865 20.02 34.091 28.254 54.11 18.389C78.367 67.428 86.602 43.2 76.739 23.178 69.704 8.902 55.365.619 40.456.62a40.25 40.25 0 0 0-17.832 4.17"/>
        <path id="cM" d="M22.624 4.79C2.602 14.654-5.631 38.882 4.235 58.903c9.865 20.02 34.091 28.254 54.11 18.389C78.367 67.428 86.602 43.2 76.739 23.178 69.704 8.902 55.365.619 40.456.62a40.25 40.25 0 0 0-17.832 4.17"/>
        <path id="cO" d="M22.624 4.79C2.602 14.654-5.631 38.882 4.235 58.903c9.865 20.02 34.091 28.254 54.11 18.389C78.367 67.428 86.602 43.2 76.739 23.178 69.704 8.902 55.365.619 40.456.62a40.25 40.25 0 0 0-17.832 4.17"/>
        <path id="cQ" d="M22.624 4.79C2.602 14.654-5.631 38.882 4.235 58.903c9.865 20.02 34.091 28.254 54.11 18.389C78.367 67.428 86.602 43.2 76.739 23.178 69.704 8.902 55.365.619 40.456.62a40.25 40.25 0 0 0-17.832 4.17"/>
        <path id="cS" d="M22.624 4.79C2.602 14.654-5.631 38.882 4.235 58.903c9.865 20.02 34.091 28.254 54.11 18.389C78.367 67.428 86.602 43.2 76.739 23.178 69.704 8.902 55.365.619 40.456.62a40.25 40.25 0 0 0-17.832 4.17"/>
        <path id="cU" d="M22.624 4.79C2.602 14.654-5.631 38.882 4.235 58.903c9.865 20.02 34.091 28.254 54.11 18.389C78.367 67.428 86.602 43.2 76.739 23.178 69.704 8.902 55.365.619 40.456.62a40.25 40.25 0 0 0-17.832 4.17"/>
        <path id="cW" d="M22.624 4.79C2.602 14.654-5.631 38.882 4.235 58.903c9.865 20.02 34.091 28.254 54.11 18.389C78.367 67.428 86.602 43.2 76.739 23.178 69.704 8.902 55.365.619 40.456.62a40.25 40.25 0 0 0-17.832 4.17"/>
        <path id="cY" d="M22.624 4.79C2.602 14.654-5.631 38.882 4.235 58.903c9.865 20.02 34.091 28.254 54.11 18.389C78.367 67.428 86.602 43.2 76.739 23.178 69.704 8.902 55.365.619 40.456.62a40.25 40.25 0 0 0-17.832 4.17"/>
        <path id="da" d="M22.624 4.79C2.602 14.654-5.631 38.882 4.235 58.903c9.865 20.02 34.091 28.254 54.11 18.389C78.367 67.428 86.602 43.2 76.739 23.178 69.704 8.902 55.365.619 40.456.62a40.25 40.25 0 0 0-17.832 4.17"/>
        <path id="dc" d="M22.624 4.79C2.602 14.654-5.631 38.882 4.235 58.903c9.865 20.02 34.091 28.254 54.11 18.389C78.367 67.428 86.602 43.2 76.739 23.178 69.704 8.902 55.365.619 40.456.62a40.25 40.25 0 0 0-17.832 4.17"/>
        <path id="de" d="M22.624 4.79C2.602 14.654-5.631 38.882 4.235 58.903c9.865 20.02 34.091 28.254 54.11 18.389C78.367 67.428 86.602 43.2 76.739 23.178 69.704 8.902 55.365.619 40.456.62a40.25 40.25 0 0 0-17.832 4.17"/>
        <path id="dg" d="M22.624 4.79C2.602 14.654-5.631 38.882 4.235 58.903c9.865 20.02 34.091 28.254 54.11 18.389C78.367 67.428 86.602 43.2 76.739 23.178 69.704 8.902 55.365.619 40.456.62a40.25 40.25 0 0 0-17.832 4.17"/>
        <path id="di" d="M22.624 4.79C2.602 14.654-5.631 38.882 4.235 58.903c9.865 20.02 34.091 28.254 54.11 18.389C78.367 67.428 86.602 43.2 76.739 23.178 69.704 8.902 55.365.619 40.456.62a40.25 40.25 0 0 0-17.832 4.17"/>
        <path id="dk" d="M22.624 4.79C2.602 14.654-5.631 38.882 4.235 58.903c9.865 20.02 34.091 28.254 54.11 18.389C78.367 67.428 86.602 43.2 76.739 23.178 69.704 8.902 55.365.619 40.456.62a40.25 40.25 0 0 0-17.832 4.17"/>
        <path id="dm" d="M22.624 4.79C2.602 14.654-5.631 38.882 4.235 58.903c9.865 20.02 34.091 28.254 54.11 18.389C78.367 67.428 86.602 43.2 76.739 23.178 69.704 8.902 55.365.619 40.456.62a40.25 40.25 0 0 0-17.832 4.17"/>
        <path id="do" d="M22.624 4.79C2.602 14.654-5.631 38.882 4.235 58.903c9.865 20.02 34.091 28.254 54.11 18.389C78.367 67.428 86.602 43.2 76.739 23.178 69.704 8.902 55.365.619 40.456.62a40.25 40.25 0 0 0-17.832 4.17"/>
        <path id="dq" d="M22.624 4.79C2.602 14.654-5.631 38.882 4.235 58.903c9.865 20.02 34.091 28.254 54.11 18.389C78.367 67.428 86.602 43.2 76.739 23.178 69.704 8.902 55.365.619 40.456.62a40.25 40.25 0 0 0-17.832 4.17"/>
        <path id="ds" d="M22.624 4.79C2.602 14.654-5.631 38.882 4.235 58.903c9.865 20.02 34.091 28.254 54.11 18.389C78.367 67.428 86.602 43.2 76.739 23.178 69.704 8.902 55.365.619 40.456.62a40.25 40.25 0 0 0-17.832 4.17"/>
        <path id="du" d="M22.624 4.79C2.602 14.654-5.631 38.882 4.235 58.903c9.865 20.02 34.091 28.254 54.11 18.389C78.367 67.428 86.602 43.2 76.739 23.178 69.704 8.902 55.365.619 40.456.62a40.25 40.25 0 0 0-17.832 4.17"/>
        <path id="dw" d="M22.624 4.79C2.602 14.654-5.631 38.882 4.235 58.903c9.865 20.02 34.091 28.254 54.11 18.389C78.367 67.428 86.602 43.2 76.739 23.178 69.704 8.902 55.365.619 40.456.62a40.25 40.25 0 0 0-17.832 4.17"/>
        <path id="dy" d="M22.624 4.79C2.602 14.654-5.631 38.882 4.235 58.903c9.865 20.02 34.091 28.254 54.11 18.389C78.367 67.428 86.602 43.2 76.739 23.178 69.704 8.902 55.365.619 40.456.62a40.25 40.25 0 0 0-17.832 4.17"/>
        <path id="dA" d="M22.624 4.79C2.602 14.654-5.631 38.882 4.235 58.903c9.865 20.02 34.091 28.254 54.11 18.389C78.367 67.428 86.602 43.2 76.739 23.178 69.704 8.902 55.365.619 40.456.62a40.25 40.25 0 0 0-17.832 4.17"/>
        <path id="dC" d="M22.624 4.79C2.602 14.654-5.631 38.882 4.235 58.903c9.865 20.02 34.091 28.254 54.11 18.389C78.367 67.428 86.602 43.2 76.739 23.178 69.704 8.902 55.365.619 40.456.62a40.25 40.25 0 0 0-17.832 4.17"/>
        <path id="dE" d="M22.624 4.79C2.602 14.654-5.631 38.882 4.235 58.903c9.865 20.02 34.091 28.254 54.11 18.389C78.367 67.428 86.602 43.2 76.739 23.178 69.704 8.902 55.365.619 40.456.62a40.25 40.25 0 0 0-17.832 4.17"/>
        <path id="dG" d="M22.624 4.79C2.602 14.654-5.631 38.882 4.235 58.903c9.865 20.02 34.091 28.254 54.11 18.389C78.367 67.428 86.602 43.2 76.739 23.178 69.704 8.902 55.365.619 40.456.62a40.25 40.25 0 0 0-17.832 4.17"/>
        <path id="dI" d="M22.624 4.79C2.602 14.654-5.631 38.882 4.235 58.903c9.865 20.02 34.091 28.254 54.11 18.389C78.367 67.428 86.602 43.2 76.739 23.178 69.704 8.902 55.365.619 40.456.62a40.25 40.25 0 0 0-17.832 4.17"/>
        <path id="dK" d="M22.624 4.79C2.602 14.654-5.631 38.882 4.235 58.903c9.865 20.02 34.091 28.254 54.11 18.389C78.367 67.428 86.602 43.2 76.739 23.178 69.704 8.902 55.365.619 40.456.62a40.25 40.25 0 0 0-17.832 4.17"/>
        <path id="dM" d="M22.624 4.79C2.602 14.654-5.631 38.882 4.235 58.903c9.865 20.02 34.091 28.254 54.11 18.389C78.367 67.428 86.602 43.2 76.739 23.178 69.704 8.902 55.365.619 40.456.62a40.25 40.25 0 0 0-17.832 4.17"/>
        <path id="dO" d="M22.624 4.79C2.602 14.654-5.631 38.882 4.235 58.903c9.865 20.02 34.091 28.254 54.11 18.389C78.367 67.428 86.602 43.2 76.739 23.178 69.704 8.902 55.365.619 40.456.62a40.25 40.25 0 0 0-17.832 4.17"/>
        <path id="dQ" d="M22.624 4.79C2.602 14.654-5.631 38.882 4.235 58.903c9.865 20.02 34.091 28.254 54.11 18.389C78.367 67.428 86.602 43.2 76.739 23.178 69.704 8.902 55.365.619 40.456.62a40.25 40.25 0 0 0-17.832 4.17"/>
        <path id="dS" d="M22.624 4.79C2.602 14.654-5.631 38.882 4.235 58.903c9.865 20.02 34.091 28.254 54.11 18.389C78.367 67.428 86.602 43.2 76.739 23.178 69.704 8.902 55.365.619 40.456.62a40.25 40.25 0 0 0-17.832 4.17"/>
        <path id="dU" d="M22.624 4.79C2.602 14.654-5.631 38.882 4.235 58.903c9.865 20.02 34.091 28.254 54.11 18.389C78.367 67.428 86.602 43.2 76.739 23.178 69.704 8.902 55.365.619 40.456.62a40.25 40.25 0 0 0-17.832 4.17"/>
        <path id="dW" d="M22.624 4.79C2.602 14.654-5.631 38.882 4.235 58.903c9.865 20.02 34.091 28.254 54.11 18.389C78.367 67.428 86.602 43.2 76.739 23.178 69.704 8.902 55.365.619 40.456.62a40.25 40.25 0 0 0-17.832 4.17"/>
        <path id="dY" d="M22.624 4.79C2.602 14.654-5.631 38.882 4.235 58.903c9.865 20.02 34.091 28.254 54.11 18.389C78.367 67.428 86.602 43.2 76.739 23.178 69.704 8.902 55.365.619 40.456.62a40.25 40.25 0 0 0-17.832 4.17"/>
        <path id="ea" d="M22.624 4.79C2.602 14.654-5.631 38.882 4.235 58.903c9.865 20.02 34.091 28.254 54.11 18.389C78.367 67.428 86.602 43.2 76.739 23.178 69.704 8.902 55.365.619 40.456.62a40.25 40.25 0 0 0-17.832 4.17"/>
        <path id="ec" d="M22.624 4.79C2.602 14.654-5.631 38.882 4.235 58.903c9.865 20.02 34.091 28.254 54.11 18.389C78.367 67.428 86.602 43.2 76.739 23.178 69.704 8.902 55.365.619 40.456.62a40.25 40.25 0 0 0-17.832 4.17"/>
        <path id="ee" d="M22.624 4.79C2.602 14.654-5.631 38.882 4.235 58.903c9.865 20.02 34.091 28.254 54.11 18.389C78.367 67.428 86.602 43.2 76.739 23.178 69.704 8.902 55.365.619 40.456.62a40.25 40.25 0 0 0-17.832 4.17"/>
        <path id="eg" d="M22.624 4.79C2.602 14.654-5.631 38.882 4.235 58.903c9.865 20.02 34.091 28.254 54.11 18.389C78.367 67.428 86.602 43.2 76.739 23.178 69.704 8.902 55.365.619 40.456.62a40.25 40.25 0 0 0-17.832 4.17"/>
        <path id="ei" d="M22.624 4.79C2.602 14.654-5.631 38.882 4.235 58.903c9.865 20.02 34.091 28.254 54.11 18.389C78.367 67.428 86.602 43.2 76.739 23.178 69.704 8.902 55.365.619 40.456.62a40.25 40.25 0 0 0-17.832 4.17"/>
        <path id="ek" d="M22.624 4.79C2.602 14.654-5.631 38.882 4.235 58.903c9.865 20.02 34.091 28.254 54.11 18.389C78.367 67.428 86.602 43.2 76.739 23.178 69.704 8.902 55.365.619 40.456.62a40.25 40.25 0 0 0-17.832 4.17"/>
        <path id="em" d="M22.624 4.79C2.602 14.654-5.631 38.882 4.235 58.903c9.865 20.02 34.091 28.254 54.11 18.389C78.367 67.428 86.602 43.2 76.739 23.178 69.704 8.902 55.365.619 40.456.62a40.25 40.25 0 0 0-17.832 4.17"/>
        <path id="eo" d="M22.624 4.79C2.602 14.654-5.631 38.882 4.235 58.903c9.865 20.02 34.091 28.254 54.11 18.389C78.367 67.428 86.602 43.2 76.739 23.178 69.704 8.902 55.365.619 40.456.62a40.25 40.25 0 0 0-17.832 4.17"/>
        <path id="eq" d="M22.624 4.79C2.602 14.654-5.631 38.882 4.235 58.903c9.865 20.02 34.091 28.254 54.11 18.389C78.367 67.428 86.602 43.2 76.739 23.178 69.704 8.902 55.365.619 40.456.62a40.25 40.25 0 0 0-17.832 4.17"/>
        <path id="es" d="M22.624 4.79C2.602 14.654-5.631 38.882 4.235 58.903c9.865 20.02 34.091 28.254 54.11 18.389C78.367 67.428 86.602 43.2 76.739 23.178 69.704 8.902 55.365.619 40.456.62a40.25 40.25 0 0 0-17.832 4.17"/>
        <path id="eu" d="M22.624 4.79C2.602 14.654-5.631 38.882 4.235 58.903c9.865 20.02 34.091 28.254 54.11 18.389C78.367 67.428 86.602 43.2 76.739 23.178 69.704 8.902 55.365.619 40.456.62a40.25 40.25 0 0 0-17.832 4.17"/>
        <path id="ew" d="M22.624 4.79C2.602 14.654-5.631 38.882 4.235 58.903c9.865 20.02 34.091 28.254 54.11 18.389C78.367 67.428 86.602 43.2 76.739 23.178 69.704 8.902 55.365.619 40.456.62a40.25 40.25 0 0 0-17.832 4.17"/>
        <path id="ey" d="M22.624 4.79C2.602 14.654-5.631 38.882 4.235 58.903c9.865 20.02 34.091 28.254 54.11 18.389C78.367 67.428 86.602 43.2 76.739 23.178 69.704 8.902 55.365.619 40.456.62a40.25 40.25 0 0 0-17.832 4.17"/>
        <path id="eA" d="M22.624 4.79C2.602 14.654-5.631 38.882 4.235 58.903c9.865 20.02 34.091 28.254 54.11 18.389C78.367 67.428 86.602 43.2 76.739 23.178 69.704 8.902 55.365.619 40.456.62a40.25 40.25 0 0 0-17.832 4.17"/>
        <path id="eC" d="M22.624 4.79C2.602 14.654-5.631 38.882 4.235 58.903c9.865 20.02 34.091 28.254 54.11 18.389C78.367 67.428 86.602 43.2 76.739 23.178 69.704 8.902 55.365.619 40.456.62a40.25 40.25 0 0 0-17.832 4.17"/>
        <path id="eE" d="M22.624 4.79C2.602 14.654-5.631 38.882 4.235 58.903c9.865 20.02 34.091 28.254 54.11 18.389C78.367 67.428 86.602 43.2 76.739 23.178 69.704 8.902 55.365.619 40.456.62a40.25 40.25 0 0 0-17.832 4.17"/>
        <path id="eG" d="M22.624 4.79C2.602 14.654-5.631 38.882 4.235 58.903c9.865 20.02 34.091 28.254 54.11 18.389C78.367 67.428 86.602 43.2 76.739 23.178 69.704 8.902 55.365.619 40.456.62a40.25 40.25 0 0 0-17.832 4.17"/>
        <path id="eI" d="M22.624 4.79C2.602 14.654-5.631 38.882 4.235 58.903c9.865 20.02 34.091 28.254 54.11 18.389C78.367 67.428 86.602 43.2 76.739 23.178 69.704 8.902 55.365.619 40.456.62a40.25 40.25 0 0 0-17.832 4.17"/>
        <path id="eK" d="M22.624 4.79C2.602 14.654-5.631 38.882 4.235 58.903c9.865 20.02 34.091 28.254 54.11 18.389C78.367 67.428 86.602 43.2 76.739 23.178 69.704 8.902 55.365.619 40.456.62a40.25 40.25 0 0 0-17.832 4.17"/>
        <path id="eM" d="M22.624 4.79C2.602 14.654-5.631 38.882 4.235 58.903c9.865 20.02 34.091 28.254 54.11 18.389C78.367 67.428 86.602 43.2 76.739 23.178 69.704 8.902 55.365.619 40.456.62a40.25 40.25 0 0 0-17.832 4.17"/>
        <path id="eO" d="M22.624 4.79C2.602 14.654-5.631 38.882 4.235 58.903c9.865 20.02 34.091 28.254 54.11 18.389C78.367 67.428 86.602 43.2 76.739 23.178 69.704 8.902 55.365.619 40.456.62a40.25 40.25 0 0 0-17.832 4.17"/>
        <path id="eQ" d="M22.624 4.79C2.602 14.654-5.631 38.882 4.235 58.903c9.865 20.02 34.091 28.254 54.11 18.389C78.367 67.428 86.602 43.2 76.739 23.178 69.704 8.902 55.365.619 40.456.62a40.25 40.25 0 0 0-17.832 4.17"/>
        <path id="eS" d="M22.624 4.79C2.602 14.654-5.631 38.882 4.235 58.903c9.865 20.02 34.091 28.254 54.11 18.389C78.367 67.428 86.602 43.2 76.739 23.178 69.704 8.902 55.365.619 40.456.62a40.25 40.25 0 0 0-17.832 4.17"/>
        <path id="eU" d="M22.624 4.79C2.602 14.654-5.631 38.882 4.235 58.903c9.865 20.02 34.091 28.254 54.11 18.389C78.367 67.428 86.602 43.2 76.739 23.178 69.704 8.902 55.365.619 40.456.62a40.25 40.25 0 0 0-17.832 4.17"/>
        <path id="eW" d="M22.624 4.79C2.602 14.654-5.631 38.882 4.235 58.903c9.865 20.02 34.091 28.254 54.11 18.389C78.367 67.428 86.602 43.2 76.739 23.178 69.704 8.902 55.365.619 40.456.62a40.25 40.25 0 0 0-17.832 4.17"/>
        <path id="eY" d="M22.624 4.79C2.602 14.654-5.631 38.882 4.235 58.903c9.865 20.02 34.091 28.254 54.11 18.389C78.367 67.428 86.602 43.2 76.739 23.178 69.704 8.902 55.365.619 40.456.62a40.25 40.25 0 0 0-17.832 4.17"/>
        <path id="fa" d="M22.624 4.79C2.602 14.654-5.631 38.882 4.235 58.903c9.865 20.02 34.091 28.254 54.11 18.389C78.367 67.428 86.602 43.2 76.739 23.178 69.704 8.902 55.365.619 40.456.62a40.25 40.25 0 0 0-17.832 4.17"/>
        <path id="fc" d="M22.624 4.79C2.602 14.654-5.631 38.882 4.235 58.903c9.865 20.02 34.091 28.254 54.11 18.389C78.367 67.428 86.602 43.2 76.739 23.178 69.704 8.902 55.365.619 40.456.62a40.25 40.25 0 0 0-17.832 4.17"/>
        <path id="fe" d="M22.624 4.79C2.602 14.654-5.631 38.882 4.235 58.903c9.865 20.02 34.091 28.254 54.11 18.389C78.367 67.428 86.602 43.2 76.739 23.178 69.704 8.902 55.365.619 40.456.62a40.25 40.25 0 0 0-17.832 4.17"/>
        <path id="fg" d="M22.624 4.79C2.602 14.654-5.631 38.882 4.235 58.903c9.865 20.02 34.091 28.254 54.11 18.389C78.367 67.428 86.602 43.2 76.739 23.178 69.704 8.902 55.365.619 40.456.62a40.25 40.25 0 0 0-17.832 4.17"/>
        <path id="fi" d="M22.624 4.79C2.602 14.654-5.631 38.882 4.235 58.903c9.865 20.02 34.091 28.254 54.11 18.389C78.367 67.428 86.602 43.2 76.739 23.178 69.704 8.902 55.365.619 40.456.62a40.25 40.25 0 0 0-17.832 4.17"/>
        <path id="fk" d="M22.624 4.79C2.602 14.654-5.631 38.882 4.235 58.903c9.865 20.02 34.091 28.254 54.11 18.389C78.367 67.428 86.602 43.2 76.739 23.178 69.704 8.902 55.365.619 40.456.62a40.25 40.25 0 0 0-17.832 4.17"/>
        <path id="fm" d="M22.624 4.79C2.602 14.654-5.631 38.882 4.235 58.903c9.865 20.02 34.091 28.254 54.11 18.389C78.367 67.428 86.602 43.2 76.739 23.178 69.704 8.902 55.365.619 40.456.62a40.25 40.25 0 0 0-17.832 4.17"/>
    </defs>
    <g fill="none" fill-rule="evenodd">
        <path fill="#E189A9" d="M104.497 77.806c-6.809 18.86-27.62 28.632-46.484 21.82C39.15 92.816 29.38 72.003 36.19 53.142 43.001 34.28 63.813 24.508 82.677 31.32c18.863 6.81 28.632 27.623 21.82 46.487"/>
        <g transform="translate(0 -.465)">
            <mask id="b" fill="#fff">
                <use xlink:href="#a"/>
            </mask>
            <path fill="#565656" d="M105.374 3.985a1.55 1.55 0 0 1-1.95-2.405 1.55 1.55 0 0 1 1.95 2.405" mask="url(#b)"/>
        </g>
        <g transform="translate(0 -.465)">
            <mask id="d" fill="#fff">
                <use xlink:href="#c"/>
            </mask>
            <path fill="#565656" d="M93.13 4.763a1.547 1.547 0 0 1-2.178-.229 1.548 1.548 0 1 1 2.178.23" mask="url(#d)"/>
        </g>
        <g transform="translate(0 -.465)">
            <mask id="f" fill="#fff">
                <use xlink:href="#e"/>
            </mask>
            <path fill="#565656" d="M97.605 10.284a1.549 1.549 0 1 1-1.95-2.407 1.549 1.549 0 0 1 1.95 2.407" mask="url(#f)"/>
        </g>
        <g transform="translate(0 -.465)">
            <mask id="h" fill="#fff">
                <use xlink:href="#g"/>
            </mask>
            <path fill="#565656" d="M102.08 15.802a1.547 1.547 0 1 1-1.95-2.406 1.55 1.55 0 1 1 1.95 2.406" mask="url(#h)"/>
        </g>
        <g transform="translate(0 -.465)">
            <mask id="j" fill="#fff">
                <use xlink:href="#i"/>
            </mask>
            <path fill="#565656" d="M106.556 21.323a1.548 1.548 0 1 1-1.95-2.405 1.548 1.548 0 0 1 1.95 2.405" mask="url(#j)"/>
        </g>
        <g transform="translate(0 -.465)">
            <mask id="l" fill="#fff">
                <use xlink:href="#k"/>
            </mask>
            <path fill="#565656" d="M80.886 5.54a1.548 1.548 0 1 1 .229-2.18 1.55 1.55 0 0 1-.229 2.18" mask="url(#l)"/>
        </g>
        <g transform="translate(0 -.465)">
            <mask id="n" fill="#fff">
                <use xlink:href="#m"/>
            </mask>
            <path fill="#565656" d="M85.362 11.06a1.548 1.548 0 1 1-1.95-2.406 1.55 1.55 0 0 1 1.951 2.406" mask="url(#n)"/>
        </g>
        <g transform="translate(0 -.465)">
            <mask id="p" fill="#fff">
                <use xlink:href="#o"/>
            </mask>
            <path fill="#565656" d="M89.837 16.58a1.546 1.546 0 0 1-2.177-.228 1.55 1.55 0 0 1 2.406-1.95c.538.665.436 1.64-.229 2.178" mask="url(#p)"/>
        </g>
        <g transform="translate(0 -.465)">
            <mask id="r" fill="#fff">
                <use xlink:href="#q"/>
            </mask>
            <path fill="#565656" d="M94.313 22.1a1.549 1.549 0 1 1-1.95-2.406 1.549 1.549 0 0 1 1.95 2.406" mask="url(#r)"/>
        </g>
        <g transform="translate(0 -.465)">
            <mask id="t" fill="#fff">
                <use xlink:href="#s"/>
            </mask>
            <path fill="#565656" d="M98.788 27.62a1.547 1.547 0 0 1-2.178-.228 1.55 1.55 0 1 1 2.178.229" mask="url(#t)"/>
        </g>
        <g transform="translate(0 -.465)">
            <mask id="v" fill="#fff">
                <use xlink:href="#u"/>
            </mask>
            <path fill="#565656" d="M103.263 33.14a1.548 1.548 0 1 1-1.95-2.406 1.548 1.548 0 1 1 1.949 2.406" mask="url(#v)"/>
        </g>
        <g transform="translate(0 -.465)">
            <mask id="x" fill="#fff">
                <use xlink:href="#w"/>
            </mask>
            <path fill="#565656" d="M107.739 38.66a1.55 1.55 0 1 1-1.949-2.407 1.55 1.55 0 0 1 1.948 2.407" mask="url(#x)"/>
        </g>
        <g transform="translate(0 -.465)">
            <mask id="z" fill="#fff">
                <use xlink:href="#y"/>
            </mask>
            <path fill="#565656" d="M64.17.797a1.549 1.549 0 1 1-1.952-2.405A1.549 1.549 0 0 1 64.17.797" mask="url(#z)"/>
        </g>
        <g transform="translate(0 -.465)">
            <mask id="B" fill="#fff">
                <use xlink:href="#A"/>
            </mask>
            <path fill="#565656" d="M68.644 6.318a1.546 1.546 0 0 1-2.177-.228 1.55 1.55 0 0 1 2.406-1.951 1.55 1.55 0 0 1-.23 2.179" mask="url(#B)"/>
        </g>
        <g transform="translate(0 -.465)">
            <mask id="D" fill="#fff">
                <use xlink:href="#C"/>
            </mask>
            <path fill="#565656" d="M73.12 11.838a1.547 1.547 0 1 1-1.95-2.405 1.547 1.547 0 0 1 2.177.228 1.546 1.546 0 0 1-.228 2.177" mask="url(#D)"/>
        </g>
        <g transform="translate(0 -.465)">
            <mask id="F" fill="#fff">
                <use xlink:href="#E"/>
            </mask>
            <path fill="#565656" d="M77.595 17.359a1.548 1.548 0 0 1-2.178-.229 1.547 1.547 0 1 1 2.405-1.951 1.55 1.55 0 0 1-.227 2.18" mask="url(#F)"/>
        </g>
        <g transform="translate(0 -.465)">
            <mask id="H" fill="#fff">
                <use xlink:href="#G"/>
            </mask>
            <path fill="#565656" d="M82.07 22.878a1.548 1.548 0 1 1-1.951-2.405 1.548 1.548 0 0 1 1.95 2.405" mask="url(#H)"/>
        </g>
        <g transform="translate(0 -.465)">
            <mask id="J" fill="#fff">
                <use xlink:href="#I"/>
            </mask>
            <path fill="#565656" d="M86.544 28.397a1.546 1.546 0 0 1-2.177-.228 1.55 1.55 0 0 1 2.406-1.95c.54.665.436 1.64-.229 2.178" mask="url(#J)"/>
        </g>
        <g transform="translate(0 -.465)">
            <mask id="L" fill="#fff">
                <use xlink:href="#K"/>
            </mask>
            <path fill="#565656" d="M91.02 33.919a1.55 1.55 0 1 1-1.95-2.41 1.55 1.55 0 0 1 1.95 2.41" mask="url(#L)"/>
        </g>
        <g transform="translate(0 -.465)">
            <mask id="N" fill="#fff">
                <use xlink:href="#M"/>
            </mask>
            <path fill="#565656" d="M95.495 39.438a1.549 1.549 0 1 1-1.95-2.406 1.549 1.549 0 0 1 1.95 2.406" mask="url(#N)"/>
        </g>
        <g transform="translate(0 -.465)">
            <mask id="P" fill="#fff">
                <use xlink:href="#O"/>
            </mask>
            <path fill="#565656" d="M99.97 44.958a1.548 1.548 0 1 1-1.949-2.405 1.547 1.547 0 1 1 1.949 2.405" mask="url(#P)"/>
        </g>
        <g transform="translate(0 -.465)">
            <mask id="R" fill="#fff">
                <use xlink:href="#Q"/>
            </mask>
            <path fill="#565656" d="M104.446 50.477a1.548 1.548 0 1 1-1.95-2.404 1.548 1.548 0 0 1 1.95 2.404" mask="url(#R)"/>
        </g>
        <g transform="translate(0 -.465)">
            <mask id="T" fill="#fff">
                <use xlink:href="#S"/>
            </mask>
            <path fill="#565656" d="M108.921 55.998a1.547 1.547 0 0 1-2.178-.23 1.547 1.547 0 1 1 2.406-1.948c.54.664.436 1.64-.228 2.178" mask="url(#T)"/>
        </g>
        <g transform="translate(0 -.465)">
            <mask id="V" fill="#fff">
                <use xlink:href="#U"/>
            </mask>
            <path fill="#565656" d="M51.927 1.577a1.55 1.55 0 1 1-1.95-2.409 1.55 1.55 0 0 1 1.95 2.409" mask="url(#V)"/>
        </g>
        <g transform="translate(0 -.465)">
            <mask id="X" fill="#fff">
                <use xlink:href="#W"/>
            </mask>
            <path fill="#565656" d="M56.4 7.094a1.546 1.546 0 0 1-2.176-.228 1.545 1.545 0 0 1 .227-2.176 1.547 1.547 0 0 1 2.178.227c.539.664.437 1.64-.228 2.177" mask="url(#X)"/>
        </g>
        <g transform="translate(0 -.465)">
            <mask id="Z" fill="#fff">
                <use xlink:href="#Y"/>
            </mask>
            <path fill="#565656" d="M60.876 12.615a1.548 1.548 0 1 1-1.949-2.405 1.548 1.548 0 1 1 1.949 2.405" mask="url(#Z)"/>
        </g>
        <g transform="translate(0 -.465)">
            <mask id="ab" fill="#fff">
                <use xlink:href="#aa"/>
            </mask>
            <path fill="#565656" d="M65.35 18.135a1.548 1.548 0 1 1-1.95-2.404 1.548 1.548 0 0 1 1.95 2.404" mask="url(#ab)"/>
        </g>
        <g transform="translate(0 -.465)">
            <mask id="ad" fill="#fff">
                <use xlink:href="#ac"/>
            </mask>
            <path fill="#565656" d="M69.827 23.656a1.55 1.55 0 1 1 0 0" mask="url(#ad)"/>
        </g>
        <g transform="translate(0 -.465)">
            <mask id="af" fill="#fff">
                <use xlink:href="#ae"/>
            </mask>
            <path fill="#565656" d="M74.302 29.176a1.548 1.548 0 0 1-2.178-.229 1.55 1.55 0 1 1 2.178.229" mask="url(#af)"/>
        </g>
        <g transform="translate(0 -.465)">
            <mask id="ah" fill="#fff">
                <use xlink:href="#ag"/>
            </mask>
            <path fill="#565656" d="M78.777 34.695a1.548 1.548 0 1 1-1.95-2.405 1.548 1.548 0 1 1 1.95 2.405" mask="url(#ah)"/>
        </g>
        <g transform="translate(0 -.465)">
            <mask id="aj" fill="#fff">
                <use xlink:href="#ai"/>
            </mask>
            <path fill="#565656" d="M83.253 40.215a1.549 1.549 0 1 1-1.95-2.406 1.549 1.549 0 0 1 1.95 2.407" mask="url(#aj)"/>
        </g>
        <g transform="translate(0 -.465)">
            <mask id="al" fill="#fff">
                <use xlink:href="#ak"/>
            </mask>
            <path fill="#565656" d="M87.728 45.735a1.547 1.547 0 0 1-2.178-.228 1.547 1.547 0 1 1 2.406-1.949c.54.664.437 1.638-.228 2.177" mask="url(#al)"/>
        </g>
        <g transform="translate(0 -.465)">
            <mask id="an" fill="#fff">
                <use xlink:href="#am"/>
            </mask>
            <path fill="#565656" d="M92.202 51.255a1.548 1.548 0 1 1-1.95-2.406 1.549 1.549 0 1 1 1.951 2.406" mask="url(#an)"/>
        </g>
        <g transform="translate(0 -.465)">
            <mask id="ap" fill="#fff">
                <use xlink:href="#ao"/>
            </mask>
            <path fill="#565656" d="M96.679 56.776a1.549 1.549 0 1 1-1.95-2.406 1.549 1.549 0 0 1 1.95 2.406" mask="url(#ap)"/>
        </g>
        <g transform="translate(0 -.465)">
            <mask id="ar" fill="#fff">
                <use xlink:href="#aq"/>
            </mask>
            <path fill="#565656" d="M101.154 62.297a1.549 1.549 0 1 1-1.95-2.407 1.549 1.549 0 0 1 1.95 2.407" mask="url(#ar)"/>
        </g>
        <g transform="translate(0 -.465)">
            <mask id="at" fill="#fff">
                <use xlink:href="#as"/>
            </mask>
            <path fill="#565656" d="M105.628 67.816a1.548 1.548 0 1 1-1.95-2.406 1.55 1.55 0 0 1 1.951 2.406" mask="url(#at)"/>
        </g>
        <g transform="translate(0 -.465)">
            <mask id="av" fill="#fff">
                <use xlink:href="#au"/>
            </mask>
            <path fill="#565656" d="M39.683 2.354a1.549 1.549 0 1 1-1.95-2.406 1.549 1.549 0 0 1 1.95 2.406" mask="url(#av)"/>
        </g>
        <g transform="translate(0 -.465)">
            <mask id="ax" fill="#fff">
                <use xlink:href="#aw"/>
            </mask>
            <path fill="#565656" d="M44.158 7.874a1.55 1.55 0 1 1-1.95-2.408 1.55 1.55 0 0 1 1.95 2.408" mask="url(#ax)"/>
        </g>
        <g transform="translate(0 -.465)">
            <mask id="az" fill="#fff">
                <use xlink:href="#ay"/>
            </mask>
            <path fill="#565656" d="M48.633 13.393a1.549 1.549 0 1 1-1.951-2.405 1.549 1.549 0 0 1 1.951 2.405" mask="url(#az)"/>
        </g>
        <g transform="translate(0 -.465)">
            <mask id="aB" fill="#fff">
                <use xlink:href="#aA"/>
            </mask>
            <path fill="#565656" d="M53.109 18.913a1.547 1.547 0 1 1-1.951-2.405 1.55 1.55 0 0 1 1.951 2.405" mask="url(#aB)"/>
        </g>
        <g transform="translate(0 -.465)">
            <mask id="aD" fill="#fff">
                <use xlink:href="#aC"/>
            </mask>
            <path fill="#565656" d="M57.583 24.433a1.548 1.548 0 1 1-1.949-2.404 1.548 1.548 0 0 1 1.95 2.404" mask="url(#aD)"/>
        </g>
        <g transform="translate(0 -.465)">
            <mask id="aF" fill="#fff">
                <use xlink:href="#aE"/>
            </mask>
            <path fill="#565656" d="M62.059 29.954a1.548 1.548 0 1 1-1.95-2.406 1.548 1.548 0 1 1 1.95 2.406" mask="url(#aF)"/>
        </g>
        <g transform="translate(0 -.465)">
            <mask id="aH" fill="#fff">
                <use xlink:href="#aG"/>
            </mask>
            <path fill="#565656" d="M66.534 35.473a1.548 1.548 0 1 1-1.95-2.406 1.55 1.55 0 0 1 1.95 2.406" mask="url(#aH)"/>
        </g>
        <g transform="translate(0 -.465)">
            <mask id="aJ" fill="#fff">
                <use xlink:href="#aI"/>
            </mask>
            <path fill="#565656" d="M71.009 40.993a1.548 1.548 0 1 1-1.95-2.406 1.548 1.548 0 0 1 1.95 2.406" mask="url(#aJ)"/>
        </g>
        <g transform="translate(0 -.465)">
            <mask id="aL" fill="#fff">
                <use xlink:href="#aK"/>
            </mask>
            <path fill="#565656" d="M75.485 46.514a1.55 1.55 0 1 1-1.95-2.409 1.55 1.55 0 0 1 1.95 2.41" mask="url(#aL)"/>
        </g>
        <g transform="translate(0 -.465)">
            <mask id="aN" fill="#fff">
                <use xlink:href="#aM"/>
            </mask>
            <path fill="#565656" d="M79.96 52.034a1.55 1.55 0 1 1-1.951-2.407 1.55 1.55 0 0 1 1.951 2.407" mask="url(#aN)"/>
        </g>
        <g transform="translate(0 -.465)">
            <mask id="aP" fill="#fff">
                <use xlink:href="#aO"/>
            </mask>
            <path fill="#565656" d="M84.435 57.553a1.548 1.548 0 1 1-1.951-2.407 1.548 1.548 0 0 1 1.95 2.407" mask="url(#aP)"/>
        </g>
        <g transform="translate(0 -.465)">
            <mask id="aR" fill="#fff">
                <use xlink:href="#aQ"/>
            </mask>
            <path fill="#565656" d="M88.91 63.073a1.548 1.548 0 1 1-1.95-2.405 1.548 1.548 0 1 1 1.95 2.405" mask="url(#aR)"/>
        </g>
        <g transform="translate(0 -.465)">
            <mask id="aT" fill="#fff">
                <use xlink:href="#aS"/>
            </mask>
            <path fill="#565656" d="M93.386 68.593a1.548 1.548 0 1 1-1.95-2.404 1.548 1.548 0 0 1 1.95 2.404" mask="url(#aT)"/>
        </g>
        <g transform="translate(0 -.465)">
            <mask id="aV" fill="#fff">
                <use xlink:href="#aU"/>
            </mask>
            <path fill="#565656" d="M97.86 74.113a1.548 1.548 0 1 1-1.95-2.406 1.548 1.548 0 0 1 1.95 2.406" mask="url(#aV)"/>
        </g>
        <g transform="translate(0 -.465)">
            <mask id="aX" fill="#fff">
                <use xlink:href="#aW"/>
            </mask>
            <path fill="#565656" d="M102.336 79.632a1.549 1.549 0 1 1-1.952-2.404 1.549 1.549 0 0 1 1.952 2.404" mask="url(#aX)"/>
        </g>
        <g transform="translate(0 -.465)">
            <mask id="aZ" fill="#fff">
                <use xlink:href="#aY"/>
            </mask>
            <path fill="#565656" d="M106.812 85.153a1.548 1.548 0 1 1-1.951-2.405 1.548 1.548 0 0 1 1.95 2.405" mask="url(#aZ)"/>
        </g>
        <g transform="translate(0 -.465)">
            <mask id="bb" fill="#fff">
                <use xlink:href="#ba"/>
            </mask>
            <path fill="#565656" d="M27.44 3.131A1.55 1.55 0 1 1 25.49.724a1.55 1.55 0 0 1 1.95 2.407" mask="url(#bb)"/>
        </g>
        <g transform="translate(0 -.465)">
            <mask id="bd" fill="#fff">
                <use xlink:href="#bc"/>
            </mask>
            <path fill="#565656" d="M31.915 8.651a1.548 1.548 0 1 1-1.95-2.406 1.548 1.548 0 0 1 1.95 2.406" mask="url(#bd)"/>
        </g>
        <g transform="translate(0 -.465)">
            <mask id="bf" fill="#fff">
                <use xlink:href="#be"/>
            </mask>
            <path fill="#565656" d="M36.39 14.17a1.548 1.548 0 1 1-1.95-2.404 1.548 1.548 0 0 1 1.95 2.405" mask="url(#bf)"/>
        </g>
        <g transform="translate(0 -.465)">
            <mask id="bh" fill="#fff">
                <use xlink:href="#bg"/>
            </mask>
            <path fill="#565656" d="M40.867 19.69a1.55 1.55 0 0 1-1.953-2.405 1.55 1.55 0 0 1 1.953 2.405" mask="url(#bh)"/>
        </g>
        <g transform="translate(0 -.465)">
            <mask id="bj" fill="#fff">
                <use xlink:href="#bi"/>
            </mask>
            <path fill="#565656" d="M45.341 25.212a1.548 1.548 0 0 1-2.178-.23 1.55 1.55 0 1 1 2.178.229" mask="url(#bj)"/>
        </g>
        <g transform="translate(0 -.465)">
            <mask id="bl" fill="#fff">
                <use xlink:href="#bk"/>
            </mask>
            <path fill="#565656" d="M49.816 30.731a1.548 1.548 0 0 1-2.178-.229 1.547 1.547 0 0 1 .227-2.177 1.55 1.55 0 0 1 1.95 2.406" mask="url(#bl)"/>
        </g>
        <g transform="translate(0 -.465)">
            <mask id="bn" fill="#fff">
                <use xlink:href="#bm"/>
            </mask>
            <path fill="#565656" d="M54.291 36.252a1.549 1.549 0 1 1-1.95-2.407 1.549 1.549 0 0 1 1.95 2.407" mask="url(#bn)"/>
        </g>
        <g transform="translate(0 -.465)">
            <mask id="bp" fill="#fff">
                <use xlink:href="#bo"/>
            </mask>
            <path fill="#565656" d="M58.766 41.771a1.55 1.55 0 1 1 .228-2.179c.539.665.437 1.64-.228 2.18" mask="url(#bp)"/>
        </g>
        <g transform="translate(0 -.465)">
            <mask id="br" fill="#fff">
                <use xlink:href="#bq"/>
            </mask>
            <path fill="#565656" d="M63.242 47.29a1.55 1.55 0 1 1 .229-2.179c.536.667.434 1.64-.23 2.18" mask="url(#br)"/>
        </g>
        <g transform="translate(0 -.465)">
            <mask id="bt" fill="#fff">
                <use xlink:href="#bs"/>
            </mask>
            <path fill="#565656" d="M67.716 52.811a1.547 1.547 0 0 1-2.178-.229 1.547 1.547 0 0 1 .227-2.177 1.549 1.549 0 0 1 1.951 2.406" mask="url(#bt)"/>
        </g>
        <g transform="translate(0 -.465)">
            <mask id="bv" fill="#fff">
                <use xlink:href="#bu"/>
            </mask>
            <path fill="#565656" d="M72.193 58.33a1.548 1.548 0 1 1-1.952-2.403 1.548 1.548 0 0 1 1.952 2.404" mask="url(#bv)"/>
        </g>
        <g transform="translate(0 -.465)">
            <mask id="bx" fill="#fff">
                <use xlink:href="#bw"/>
            </mask>
            <path fill="#565656" d="M76.667 63.85a1.548 1.548 0 1 1-1.95-2.403 1.548 1.548 0 0 1 1.95 2.403" mask="url(#bx)"/>
        </g>
        <g transform="translate(0 -.465)">
            <mask id="bz" fill="#fff">
                <use xlink:href="#by"/>
            </mask>
            <path fill="#565656" d="M81.142 69.37a1.547 1.547 0 0 1-2.178-.228 1.545 1.545 0 0 1 .229-2.176 1.548 1.548 0 1 1 1.949 2.405" mask="url(#bz)"/>
        </g>
        <g transform="translate(0 -.465)">
            <mask id="bB" fill="#fff">
                <use xlink:href="#bA"/>
            </mask>
            <path fill="#565656" d="M85.618 74.891a1.549 1.549 0 1 1-1.95-2.406 1.549 1.549 0 0 1 1.95 2.406" mask="url(#bB)"/>
        </g>
        <g transform="translate(0 -.465)">
            <mask id="bD" fill="#fff">
                <use xlink:href="#bC"/>
            </mask>
            <path fill="#565656" d="M90.093 80.412a1.548 1.548 0 1 1-1.95-2.406 1.548 1.548 0 0 1 1.95 2.406" mask="url(#bD)"/>
        </g>
        <g transform="translate(0 -.465)">
            <mask id="bF" fill="#fff">
                <use xlink:href="#bE"/>
            </mask>
            <path fill="#565656" d="M94.568 85.931a1.548 1.548 0 1 1-1.95-2.406 1.55 1.55 0 0 1 1.95 2.406" mask="url(#bF)"/>
        </g>
        <g transform="translate(0 -.465)">
            <mask id="bH" fill="#fff">
                <use xlink:href="#bG"/>
            </mask>
            <path fill="#565656" d="M99.042 91.45a1.548 1.548 0 1 1-1.949-2.403 1.548 1.548 0 1 1 1.95 2.404" mask="url(#bH)"/>
        </g>
        <g transform="translate(0 -.465)">
            <mask id="bJ" fill="#fff">
                <use xlink:href="#bI"/>
            </mask>
            <path fill="#565656" d="M103.519 96.97a1.547 1.547 0 0 1-2.178-.228 1.547 1.547 0 0 1 .227-2.177 1.547 1.547 0 1 1 1.951 2.405" mask="url(#bJ)"/>
        </g>
        <g transform="translate(0 -.465)">
            <mask id="bL" fill="#fff">
                <use xlink:href="#bK"/>
            </mask>
            <path fill="#565656" d="M107.993 102.49a1.548 1.548 0 1 1-1.95-2.404 1.548 1.548 0 0 1 1.95 2.405" mask="url(#bL)"/>
        </g>
        <g transform="translate(0 -.465)">
            <mask id="bN" fill="#fff">
                <use xlink:href="#bM"/>
            </mask>
            <path fill="#565656" d="M15.197 3.908a1.547 1.547 0 1 1-1.951-2.405 1.55 1.55 0 0 1 1.95 2.405" mask="url(#bN)"/>
        </g>
        <g transform="translate(0 -.465)">
            <mask id="bP" fill="#fff">
                <use xlink:href="#bO"/>
            </mask>
            <path fill="#565656" d="M19.672 9.43a1.55 1.55 0 1 1-1.95-2.41 1.55 1.55 0 0 1 1.95 2.41" mask="url(#bP)"/>
        </g>
        <g transform="translate(0 -.465)">
            <mask id="bR" fill="#fff">
                <use xlink:href="#bQ"/>
            </mask>
            <path fill="#565656" d="M24.148 14.949a1.548 1.548 0 1 1-1.951-2.406 1.548 1.548 0 1 1 1.95 2.406" mask="url(#bR)"/>
        </g>
        <g transform="translate(0 -.465)">
            <mask id="bT" fill="#fff">
                <use xlink:href="#bS"/>
            </mask>
            <path fill="#565656" d="M28.622 20.47a1.548 1.548 0 1 1 .228-2.179 1.549 1.549 0 0 1-.228 2.178" mask="url(#bT)"/>
        </g>
        <g transform="translate(0 -.465)">
            <mask id="bV" fill="#fff">
                <use xlink:href="#bU"/>
            </mask>
            <path fill="#565656" d="M33.097 25.988a1.548 1.548 0 1 1-1.95-2.406 1.549 1.549 0 1 1 1.95 2.406" mask="url(#bV)"/>
        </g>
        <g transform="translate(0 -.465)">
            <mask id="bX" fill="#fff">
                <use xlink:href="#bW"/>
            </mask>
            <path fill="#565656" d="M37.572 31.509a1.546 1.546 0 0 1-2.177-.229 1.548 1.548 0 1 1 2.177.228" mask="url(#bX)"/>
        </g>
        <g transform="translate(0 -.465)">
            <mask id="bZ" fill="#fff">
                <use xlink:href="#bY"/>
            </mask>
            <path fill="#565656" d="M42.048 37.029a1.549 1.549 0 1 1-1.949-2.407 1.549 1.549 0 0 1 1.95 2.407" mask="url(#bZ)"/>
        </g>
        <g transform="translate(0 -.465)">
            <mask id="cb" fill="#fff">
                <use xlink:href="#ca"/>
            </mask>
            <path fill="#565656" d="M46.523 42.548a1.547 1.547 0 0 1-2.178-.229 1.546 1.546 0 0 1 .227-2.175 1.55 1.55 0 0 1 2.18.227 1.547 1.547 0 0 1-.23 2.177" mask="url(#cb)"/>
        </g>
        <g transform="translate(0 -.465)">
            <mask id="cd" fill="#fff">
                <use xlink:href="#cc"/>
            </mask>
            <path fill="#565656" d="M51 48.068a1.546 1.546 0 0 1-2.179-.228 1.547 1.547 0 1 1 2.405-1.949A1.548 1.548 0 0 1 51 48.068" mask="url(#cd)"/>
        </g>
        <g transform="translate(0 -.465)">
            <mask id="cf" fill="#fff">
                <use xlink:href="#ce"/>
            </mask>
            <path fill="#565656" d="M55.473 53.587a1.548 1.548 0 1 1-1.95-2.405 1.548 1.548 0 0 1 1.95 2.405" mask="url(#cf)"/>
        </g>
        <g transform="translate(0 -.465)">
            <mask id="ch" fill="#fff">
                <use xlink:href="#cg"/>
            </mask>
            <path fill="#565656" d="M59.949 59.109a1.548 1.548 0 0 1-2.178-.229 1.548 1.548 0 1 1 2.178.229" mask="url(#ch)"/>
        </g>
        <g transform="translate(0 -.465)">
            <mask id="cj" fill="#fff">
                <use xlink:href="#ci"/>
            </mask>
            <path fill="#565656" d="M64.423 64.629a1.546 1.546 0 0 1-2.177-.228 1.55 1.55 0 1 1 2.177.228" mask="url(#cj)"/>
        </g>
        <g transform="translate(0 -.465)">
            <mask id="cl" fill="#fff">
                <use xlink:href="#ck"/>
            </mask>
            <path fill="#565656" d="M68.899 70.15a1.55 1.55 0 1 1 .228-2.179c.539.663.437 1.64-.228 2.178" mask="url(#cl)"/>
        </g>
        <g transform="translate(0 -.465)">
            <mask id="cn" fill="#fff">
                <use xlink:href="#cm"/>
            </mask>
            <path fill="#565656" d="M73.374 75.669a1.548 1.548 0 1 1-1.95-2.405 1.55 1.55 0 0 1 2.18.226 1.55 1.55 0 0 1-.23 2.179" mask="url(#cn)"/>
        </g>
        <g transform="translate(0 -.465)">
            <mask id="cp" fill="#fff">
                <use xlink:href="#co"/>
            </mask>
            <path fill="#565656" d="M77.849 81.188a1.548 1.548 0 1 1-1.95-2.405 1.548 1.548 0 1 1 1.95 2.405" mask="url(#cp)"/>
        </g>
        <g transform="translate(0 -.465)">
            <mask id="cr" fill="#fff">
                <use xlink:href="#cq"/>
            </mask>
            <path fill="#565656" d="M82.325 86.709a1.549 1.549 0 1 1-1.95-2.407 1.549 1.549 0 0 1 1.95 2.407" mask="url(#cr)"/>
        </g>
        <g transform="translate(0 -.465)">
            <mask id="ct" fill="#fff">
                <use xlink:href="#cs"/>
            </mask>
            <path fill="#565656" d="M86.8 92.228a1.547 1.547 0 1 1-1.95-2.403 1.547 1.547 0 0 1 1.95 2.403" mask="url(#ct)"/>
        </g>
        <g transform="translate(0 -.465)">
            <mask id="cv" fill="#fff">
                <use xlink:href="#cu"/>
            </mask>
            <path fill="#565656" d="M91.275 97.749a1.546 1.546 0 0 1-2.177-.23 1.545 1.545 0 0 1 .228-2.175 1.547 1.547 0 1 1 1.949 2.405" mask="url(#cv)"/>
        </g>
        <g transform="translate(0 -.465)">
            <mask id="cx" fill="#fff">
                <use xlink:href="#cw"/>
            </mask>
            <path fill="#565656" d="M95.751 103.27a1.55 1.55 0 1 1-1.95-2.408 1.55 1.55 0 0 1 1.95 2.407" mask="url(#cx)"/>
        </g>
        <g transform="translate(0 -.465)">
            <mask id="cz" fill="#fff">
                <use xlink:href="#cy"/>
            </mask>
            <path fill="#565656" d="M2.953 4.686a1.545 1.545 0 0 1-2.177-.229 1.547 1.547 0 1 1 2.405-1.949 1.548 1.548 0 0 1-.228 2.178" mask="url(#cz)"/>
        </g>
        <g transform="translate(0 -.465)">
            <mask id="cB" fill="#fff">
                <use xlink:href="#cA"/>
            </mask>
            <path fill="#565656" d="M7.429 10.207a1.548 1.548 0 1 1 .227-2.179 1.55 1.55 0 0 1-.227 2.179" mask="url(#cB)"/>
        </g>
        <g transform="translate(0 -.465)">
            <mask id="cD" fill="#fff">
                <use xlink:href="#cC"/>
            </mask>
            <path fill="#565656" d="M11.904 15.727a1.548 1.548 0 0 1-2.178-.23 1.55 1.55 0 1 1 2.178.23" mask="url(#cD)"/>
        </g>
        <g transform="translate(0 -.465)">
            <mask id="cF" fill="#fff">
                <use xlink:href="#cE"/>
            </mask>
            <path fill="#565656" d="M16.38 21.247a1.548 1.548 0 1 1-1.95-2.407 1.548 1.548 0 0 1 1.95 2.407" mask="url(#cF)"/>
        </g>
        <g transform="translate(0 -.465)">
            <mask id="cH" fill="#fff">
                <use xlink:href="#cG"/>
            </mask>
            <path fill="#565656" d="M20.855 26.766a1.548 1.548 0 1 1-1.95-2.406 1.548 1.548 0 0 1 1.95 2.406" mask="url(#cH)"/>
        </g>
        <g transform="translate(0 -.465)">
            <mask id="cJ" fill="#fff">
                <use xlink:href="#cI"/>
            </mask>
            <path fill="#565656" d="M25.33 32.286a1.548 1.548 0 1 1-1.952-2.406 1.552 1.552 0 0 1 2.18.227c.537.665.435 1.64-.229 2.179" mask="url(#cJ)"/>
        </g>
        <g transform="translate(0 -.465)">
            <mask id="cL" fill="#fff">
                <use xlink:href="#cK"/>
            </mask>
            <path fill="#565656" d="M29.804 37.805a1.546 1.546 0 0 1-2.177-.228 1.544 1.544 0 0 1 .228-2.176 1.547 1.547 0 1 1 1.949 2.404" mask="url(#cL)"/>
        </g>
        <g transform="translate(0 -.465)">
            <mask id="cN" fill="#fff">
                <use xlink:href="#cM"/>
            </mask>
            <path fill="#565656" d="M34.28 43.325a1.548 1.548 0 1 1-1.95-2.404 1.548 1.548 0 0 1 1.95 2.404" mask="url(#cN)"/>
        </g>
        <g transform="translate(0 -.465)">
            <mask id="cP" fill="#fff">
                <use xlink:href="#cO"/>
            </mask>
            <path fill="#565656" d="M38.755 48.846a1.548 1.548 0 1 1 .228-2.179 1.549 1.549 0 0 1-.228 2.18" mask="url(#cP)"/>
        </g>
        <g transform="translate(0 -.465)">
            <mask id="cR" fill="#fff">
                <use xlink:href="#cQ"/>
            </mask>
            <path fill="#565656" d="M43.23 54.367a1.546 1.546 0 0 1-2.177-.23 1.547 1.547 0 1 1 2.406-1.95c.539.665.436 1.64-.23 2.18" mask="url(#cR)"/>
        </g>
        <g transform="translate(0 -.465)">
            <mask id="cT" fill="#fff">
                <use xlink:href="#cS"/>
            </mask>
            <path fill="#565656" d="M47.706 59.885a1.548 1.548 0 1 1-1.951-2.407 1.548 1.548 0 0 1 1.951 2.407" mask="url(#cT)"/>
        </g>
        <g transform="translate(0 -.465)">
            <mask id="cV" fill="#fff">
                <use xlink:href="#cU"/>
            </mask>
            <path fill="#565656" d="M52.18 65.406a1.547 1.547 0 0 1-2.177-.23 1.546 1.546 0 0 1 .228-2.175 1.547 1.547 0 1 1 1.95 2.405" mask="url(#cV)"/>
        </g>
        <g transform="translate(0 -.465)">
            <mask id="cX" fill="#fff">
                <use xlink:href="#cW"/>
            </mask>
            <path fill="#565656" d="M56.656 70.926a1.548 1.548 0 1 1-1.95-2.406 1.549 1.549 0 1 1 1.95 2.406" mask="url(#cX)"/>
        </g>
        <g transform="translate(0 -.465)">
            <mask id="cZ" fill="#fff">
                <use xlink:href="#cY"/>
            </mask>
            <path fill="#565656" d="M61.13 76.446a1.546 1.546 0 0 1-2.177-.228 1.545 1.545 0 0 1 .228-2.177 1.547 1.547 0 1 1 1.95 2.405" mask="url(#cZ)"/>
        </g>
        <g transform="translate(0 -.465)">
            <mask id="db" fill="#fff">
                <use xlink:href="#da"/>
            </mask>
            <path fill="#565656" d="M65.607 81.966a1.548 1.548 0 1 1-1.95-2.404 1.548 1.548 0 0 1 1.95 2.404" mask="url(#db)"/>
        </g>
        <g transform="translate(0 -.465)">
            <mask id="dd" fill="#fff">
                <use xlink:href="#dc"/>
            </mask>
            <path fill="#565656" d="M70.081 87.487a1.547 1.547 0 1 1-1.949-2.406 1.548 1.548 0 1 1 1.95 2.406" mask="url(#dd)"/>
        </g>
        <g transform="translate(0 -.465)">
            <mask id="df" fill="#fff">
                <use xlink:href="#de"/>
            </mask>
            <path fill="#565656" d="M74.558 93.007a1.548 1.548 0 0 1-2.178-.23 1.55 1.55 0 1 1 2.178.229" mask="url(#df)"/>
        </g>
        <g transform="translate(0 -.465)">
            <mask id="dh" fill="#fff">
                <use xlink:href="#dg"/>
            </mask>
            <path fill="#565656" d="M79.032 98.526a1.548 1.548 0 1 1-1.95-2.405 1.548 1.548 0 0 1 1.95 2.405" mask="url(#dh)"/>
        </g>
        <g transform="translate(0 -.465)">
            <mask id="dj" fill="#fff">
                <use xlink:href="#di"/>
            </mask>
            <path fill="#565656" d="M83.507 104.046a1.547 1.547 0 0 1-2.178-.229 1.547 1.547 0 0 1 .228-2.176 1.55 1.55 0 0 1 2.18.227 1.55 1.55 0 0 1-.23 2.178" mask="url(#dj)"/>
        </g>
        <g transform="translate(0 -.465)">
            <mask id="dl" fill="#fff">
                <use xlink:href="#dk"/>
            </mask>
            <path fill="#565656" d="M-.339 16.504a1.549 1.549 0 1 1-1.95-2.406 1.549 1.549 0 0 1 1.95 2.406" mask="url(#dl)"/>
        </g>
        <g transform="translate(0 -.465)">
            <mask id="dn" fill="#fff">
                <use xlink:href="#dm"/>
            </mask>
            <path fill="#565656" d="M4.136 22.024a1.55 1.55 0 1 1-1.95-2.41 1.55 1.55 0 0 1 1.95 2.41" mask="url(#dn)"/>
        </g>
        <g transform="translate(0 -.465)">
            <mask id="dp" fill="#fff">
                <use xlink:href="#do"/>
            </mask>
            <path fill="#565656" d="M8.612 27.544a1.548 1.548 0 0 1-2.178-.23 1.545 1.545 0 0 1 .227-2.175 1.55 1.55 0 0 1 1.95 2.405" mask="url(#dp)"/>
        </g>
        <g transform="translate(0 -.465)">
            <mask id="dr" fill="#fff">
                <use xlink:href="#dq"/>
            </mask>
            <path fill="#565656" d="M13.087 33.064a1.548 1.548 0 0 1-1.951-2.406 1.548 1.548 0 1 1 1.95 2.406" mask="url(#dr)"/>
        </g>
        <g transform="translate(0 -.465)">
            <mask id="dt" fill="#fff">
                <use xlink:href="#ds"/>
            </mask>
            <path fill="#565656" d="M17.562 38.584a1.547 1.547 0 0 1-2.178-.23 1.547 1.547 0 1 1 2.405-1.948 1.548 1.548 0 0 1-.227 2.178" mask="url(#dt)"/>
        </g>
        <g transform="translate(0 -.465)">
            <mask id="dv" fill="#fff">
                <use xlink:href="#du"/>
            </mask>
            <path fill="#565656" d="M22.036 44.104a1.547 1.547 0 0 1-2.178-.229 1.548 1.548 0 1 1 2.178.229" mask="url(#dv)"/>
        </g>
        <g transform="translate(0 -.465)">
            <mask id="dx" fill="#fff">
                <use xlink:href="#dw"/>
            </mask>
            <path fill="#565656" d="M26.512 49.625a1.548 1.548 0 1 1-1.949-2.407 1.548 1.548 0 0 1 1.949 2.407" mask="url(#dx)"/>
        </g>
        <g transform="translate(0 -.465)">
            <mask id="dz" fill="#fff">
                <use xlink:href="#dy"/>
            </mask>
            <path fill="#565656" d="M30.988 55.144a1.55 1.55 0 1 1-1.95-2.409 1.55 1.55 0 0 1 1.95 2.41" mask="url(#dz)"/>
        </g>
        <g transform="translate(0 -.465)">
            <mask id="dB" fill="#fff">
                <use xlink:href="#dA"/>
            </mask>
            <path fill="#565656" d="M35.462 60.664a1.548 1.548 0 1 1-1.949-2.406 1.549 1.549 0 1 1 1.95 2.406" mask="url(#dB)"/>
        </g>
        <g transform="translate(0 -.465)">
            <mask id="dD" fill="#fff">
                <use xlink:href="#dC"/>
            </mask>
            <path fill="#565656" d="M39.937 66.183a1.546 1.546 0 0 1-2.177-.228 1.548 1.548 0 1 1 2.177.228" mask="url(#dD)"/>
        </g>
        <g transform="translate(0 -.465)">
            <mask id="dF" fill="#fff">
                <use xlink:href="#dE"/>
            </mask>
            <path fill="#565656" d="M44.413 71.704a1.548 1.548 0 0 1-2.178-.23 1.545 1.545 0 0 1 .227-2.175 1.547 1.547 0 1 1 1.951 2.405" mask="url(#dF)"/>
        </g>
        <g transform="translate(0 -.465)">
            <mask id="dH" fill="#fff">
                <use xlink:href="#dG"/>
            </mask>
            <path fill="#565656" d="M48.889 77.224a1.549 1.549 0 1 1-1.95-2.407 1.549 1.549 0 0 1 1.95 2.407" mask="url(#dH)"/>
        </g>
        <g transform="translate(0 -.465)">
            <mask id="dJ" fill="#fff">
                <use xlink:href="#dI"/>
            </mask>
            <path fill="#565656" d="M53.362 82.744a1.548 1.548 0 1 1 .23-2.18c.538.665.437 1.64-.23 2.18" mask="url(#dJ)"/>
        </g>
        <g transform="translate(0 -.465)">
            <mask id="dL" fill="#fff">
                <use xlink:href="#dK"/>
            </mask>
            <path fill="#565656" d="M57.838 88.264a1.55 1.55 0 1 1-1.948-2.408 1.55 1.55 0 0 1 1.948 2.408" mask="url(#dL)"/>
        </g>
        <g transform="translate(0 -.465)">
            <mask id="dN" fill="#fff">
                <use xlink:href="#dM"/>
            </mask>
            <path fill="#565656" d="M62.315 93.785a1.55 1.55 0 1 1-1.95-2.41 1.55 1.55 0 0 1 1.95 2.41" mask="url(#dN)"/>
        </g>
        <g transform="translate(0 -.465)">
            <mask id="dP" fill="#fff">
                <use xlink:href="#dO"/>
            </mask>
            <path fill="#565656" d="M66.788 99.304a1.547 1.547 0 1 1 .229-2.179c.54.665.437 1.64-.229 2.18" mask="url(#dP)"/>
        </g>
        <g transform="translate(0 -.465)">
            <mask id="dR" fill="#fff">
                <use xlink:href="#dQ"/>
            </mask>
            <path fill="#565656" d="M71.265 104.824a1.548 1.548 0 1 1-1.95-2.406 1.548 1.548 0 0 1 1.95 2.406" mask="url(#dR)"/>
        </g>
        <g transform="translate(0 -.465)">
            <mask id="dT" fill="#fff">
                <use xlink:href="#dS"/>
            </mask>
            <path fill="#565656" d="M.844 33.842a1.548 1.548 0 1 1 .228-2.179 1.549 1.549 0 0 1-.229 2.178" mask="url(#dT)"/>
        </g>
        <g transform="translate(0 -.465)">
            <mask id="dV" fill="#fff">
                <use xlink:href="#dU"/>
            </mask>
            <path fill="#565656" d="M5.319 39.362a1.548 1.548 0 1 1 .228-2.18 1.55 1.55 0 0 1-.228 2.18" mask="url(#dV)"/>
        </g>
        <g transform="translate(0 -.465)">
            <mask id="dX" fill="#fff">
                <use xlink:href="#dW"/>
            </mask>
            <path fill="#565656" d="M9.794 44.882a1.548 1.548 0 1 1 .228-2.18 1.552 1.552 0 0 1-.228 2.18" mask="url(#dX)"/>
        </g>
        <g transform="translate(0 -.465)">
            <mask id="dZ" fill="#fff">
                <use xlink:href="#dY"/>
            </mask>
            <path fill="#565656" d="M14.269 50.401a1.546 1.546 0 0 1-2.177-.228 1.549 1.549 0 1 1 2.177.228" mask="url(#dZ)"/>
        </g>
        <g transform="translate(0 -.465)">
            <mask id="eb" fill="#fff">
                <use xlink:href="#ea"/>
            </mask>
            <path fill="#565656" d="M18.743 55.92a1.548 1.548 0 1 1-1.949-2.405 1.548 1.548 0 0 1 1.95 2.405" mask="url(#eb)"/>
        </g>
        <g transform="translate(0 -.465)">
            <mask id="ed" fill="#fff">
                <use xlink:href="#ec"/>
            </mask>
            <path fill="#565656" d="M23.22 61.442a1.55 1.55 0 0 1-1.951-2.406 1.549 1.549 0 1 1 1.951 2.406" mask="url(#ed)"/>
        </g>
        <g transform="translate(0 -.465)">
            <mask id="ef" fill="#fff">
                <use xlink:href="#ee"/>
            </mask>
            <path fill="#565656" d="M27.696 66.962a1.547 1.547 0 0 1-2.178-.23 1.549 1.549 0 1 1 2.178.229" mask="url(#ef)"/>
        </g>
        <g transform="translate(0 -.465)">
            <mask id="eh" fill="#fff">
                <use xlink:href="#eg"/>
            </mask>
            <path fill="#565656" d="M32.17 72.481a1.547 1.547 0 1 1 .229-2.178c.538.664.436 1.64-.23 2.178" mask="url(#eh)"/>
        </g>
        <g transform="translate(0 -.465)">
            <mask id="ej" fill="#fff">
                <use xlink:href="#ei"/>
            </mask>
            <path fill="#565656" d="M36.645 78.002a1.545 1.545 0 0 1-2.177-.23 1.547 1.547 0 1 1 2.405-1.95 1.547 1.547 0 0 1-.228 2.18" mask="url(#ej)"/>
        </g>
        <g transform="translate(0 -.465)">
            <mask id="el" fill="#fff">
                <use xlink:href="#ek"/>
            </mask>
            <path fill="#565656" d="M41.12 83.522a1.549 1.549 0 1 1-1.949-2.407 1.549 1.549 0 0 1 1.95 2.407" mask="url(#el)"/>
        </g>
        <g transform="translate(0 -.465)">
            <mask id="en" fill="#fff">
                <use xlink:href="#em"/>
            </mask>
            <path fill="#565656" d="M45.596 89.042a1.55 1.55 0 0 1-2.18-.228 1.55 1.55 0 0 1 2.408-1.951 1.55 1.55 0 0 1-.228 2.179" mask="url(#en)"/>
        </g>
        <g transform="translate(0 -.465)">
            <mask id="ep" fill="#fff">
                <use xlink:href="#eo"/>
            </mask>
            <path fill="#565656" d="M50.072 94.561a1.547 1.547 0 1 1-1.952-2.405 1.55 1.55 0 0 1 1.952 2.405" mask="url(#ep)"/>
        </g>
        <g transform="translate(0 -.465)">
            <mask id="er" fill="#fff">
                <use xlink:href="#eq"/>
            </mask>
            <path fill="#565656" d="M54.546 100.08a1.548 1.548 0 1 1-1.95-2.404 1.548 1.548 0 1 1 1.951 2.405" mask="url(#er)"/>
        </g>
        <g transform="translate(0 -.465)">
            <mask id="et" fill="#fff">
                <use xlink:href="#es"/>
            </mask>
            <path fill="#565656" d="M2.026 51.178a1.55 1.55 0 1 1-1.95-2.408 1.55 1.55 0 0 1 1.95 2.408" mask="url(#et)"/>
        </g>
        <g transform="translate(0 -.465)">
            <mask id="ev" fill="#fff">
                <use xlink:href="#eu"/>
            </mask>
            <path fill="#565656" d="M6.501 56.699a1.545 1.545 0 0 1-2.177-.23 1.548 1.548 0 1 1 2.177.229" mask="url(#ev)"/>
        </g>
        <g transform="translate(0 -.465)">
            <mask id="ex" fill="#fff">
                <use xlink:href="#ew"/>
            </mask>
            <path fill="#565656" d="M10.976 62.218a1.548 1.548 0 1 1-1.95-2.406 1.548 1.548 0 0 1 1.95 2.406" mask="url(#ex)"/>
        </g>
        <g transform="translate(0 -.465)">
            <mask id="ez" fill="#fff">
                <use xlink:href="#ey"/>
            </mask>
            <path fill="#565656" d="M15.451 67.74a1.55 1.55 0 1 1 .229-2.18 1.55 1.55 0 0 1-.229 2.18" mask="url(#ez)"/>
        </g>
        <g transform="translate(0 -.465)">
            <mask id="eB" fill="#fff">
                <use xlink:href="#eA"/>
            </mask>
            <path fill="#565656" d="M19.927 73.26a1.55 1.55 0 1 1-1.949-2.407 1.55 1.55 0 0 1 1.949 2.406" mask="url(#eB)"/>
        </g>
        <g transform="translate(0 -.465)">
            <mask id="eD" fill="#fff">
                <use xlink:href="#eC"/>
            </mask>
            <path fill="#565656" d="M24.402 78.779a1.548 1.548 0 1 1-1.95-2.406 1.548 1.548 0 0 1 1.95 2.406" mask="url(#eD)"/>
        </g>
        <g transform="translate(0 -.465)">
            <mask id="eF" fill="#fff">
                <use xlink:href="#eE"/>
            </mask>
            <path fill="#565656" d="M28.878 84.299a1.549 1.549 0 1 1 0 0" mask="url(#eF)"/>
        </g>
        <g transform="translate(0 -.465)">
            <mask id="eH" fill="#fff">
                <use xlink:href="#eG"/>
            </mask>
            <path fill="#565656" d="M33.353 89.819a1.549 1.549 0 1 1-1.95-2.407 1.549 1.549 0 0 1 1.95 2.407" mask="url(#eH)"/>
        </g>
        <g transform="translate(0 -.465)">
            <mask id="eJ" fill="#fff">
                <use xlink:href="#eI"/>
            </mask>
            <path fill="#565656" d="M37.827 95.338a1.548 1.548 0 1 1-1.949-2.404 1.548 1.548 0 0 1 1.95 2.404" mask="url(#eJ)"/>
        </g>
        <g transform="translate(0 -.465)">
            <mask id="eL" fill="#fff">
                <use xlink:href="#eK"/>
            </mask>
            <path fill="#565656" d="M42.303 100.859a1.546 1.546 0 0 1-2.177-.229 1.549 1.549 0 1 1 2.177.229" mask="url(#eL)"/>
        </g>
        <g transform="translate(0 -.465)">
            <mask id="eN" fill="#fff">
                <use xlink:href="#eM"/>
            </mask>
            <path fill="#565656" d="M3.208 68.516a1.547 1.547 0 1 1-1.95-2.404 1.547 1.547 0 1 1 1.95 2.404" mask="url(#eN)"/>
        </g>
        <g transform="translate(0 -.465)">
            <mask id="eP" fill="#fff">
                <use xlink:href="#eO"/>
            </mask>
            <path fill="#565656" d="M7.683 74.036a1.546 1.546 0 0 1-2.177-.228 1.547 1.547 0 1 1 2.177.228" mask="url(#eP)"/>
        </g>
        <g transform="translate(0 -.465)">
            <mask id="eR" fill="#fff">
                <use xlink:href="#eQ"/>
            </mask>
            <path fill="#565656" d="M12.159 79.556a1.546 1.546 0 0 1-2.177-.228 1.548 1.548 0 1 1 2.405-1.95c.539.664.437 1.64-.228 2.178" mask="url(#eR)"/>
        </g>
        <g transform="translate(0 -.465)">
            <mask id="eT" fill="#fff">
                <use xlink:href="#eS"/>
            </mask>
            <path fill="#565656" d="M16.634 85.076a1.548 1.548 0 1 1-1.95-2.404 1.548 1.548 0 0 1 1.95 2.404" mask="url(#eT)"/>
        </g>
        <g transform="translate(0 -.465)">
            <mask id="eV" fill="#fff">
                <use xlink:href="#eU"/>
            </mask>
            <path fill="#565656" d="M21.11 90.596a1.548 1.548 0 1 1 .228-2.178 1.548 1.548 0 0 1-.228 2.178" mask="url(#eV)"/>
        </g>
        <g transform="translate(0 -.465)">
            <mask id="eX" fill="#fff">
                <use xlink:href="#eW"/>
            </mask>
            <path fill="#565656" d="M25.585 96.117a1.548 1.548 0 0 1-2.178-.23 1.55 1.55 0 1 1 2.178.229" mask="url(#eX)"/>
        </g>
        <g transform="translate(0 -.465)">
            <mask id="eZ" fill="#fff">
                <use xlink:href="#eY"/>
            </mask>
            <path fill="#565656" d="M30.06 101.637a1.549 1.549 0 1 1-1.95-2.407 1.549 1.549 0 0 1 1.95 2.407" mask="url(#eZ)"/>
        </g>
        <g transform="translate(0 -.465)">
            <mask id="fb" fill="#fff">
                <use xlink:href="#fa"/>
            </mask>
            <path fill="#565656" d="M-.084 80.335a1.545 1.545 0 0 1-2.177-.23 1.547 1.547 0 1 1 2.177.229" mask="url(#fb)"/>
        </g>
        <g transform="translate(0 -.465)">
            <mask id="fd" fill="#fff">
                <use xlink:href="#fc"/>
            </mask>
            <path fill="#565656" d="M4.391 85.855a1.547 1.547 0 0 1-2.177-.229 1.548 1.548 0 1 1 2.177.23" mask="url(#fd)"/>
        </g>
        <g transform="translate(0 -.465)">
            <mask id="ff" fill="#fff">
                <use xlink:href="#fe"/>
            </mask>
            <path fill="#565656" d="M8.866 91.374a1.546 1.546 0 0 1-2.177-.228 1.548 1.548 0 1 1 2.177.228" mask="url(#ff)"/>
        </g>
        <g transform="translate(0 -.465)">
            <mask id="fh" fill="#fff">
                <use xlink:href="#fg"/>
            </mask>
            <path fill="#565656" d="M13.341 96.894a1.546 1.546 0 0 1-2.177-.229 1.55 1.55 0 1 1 2.177.229" mask="url(#fh)"/>
        </g>
        <g transform="translate(0 -.465)">
            <mask id="fj" fill="#fff">
                <use xlink:href="#fi"/>
            </mask>
            <path fill="#565656" d="M17.817 102.414a1.546 1.546 0 0 1-2.177-.228 1.548 1.548 0 1 1 2.177.228" mask="url(#fj)"/>
        </g>
        <g transform="translate(0 -.465)">
            <mask id="fl" fill="#fff">
                <use xlink:href="#fk"/>
            </mask>
            <path fill="#565656" d="M1.097 97.671a1.547 1.547 0 1 1-1.95-2.406 1.55 1.55 0 0 1 1.95 2.406" mask="url(#fl)"/>
        </g>
        <g transform="translate(0 -.465)">
            <mask id="fn" fill="#fff">
                <use xlink:href="#fm"/>
            </mask>
            <path fill="#565656" d="M5.574 103.192a1.547 1.547 0 0 1-2.178-.229 1.55 1.55 0 0 1 2.406-1.951c.54.666.437 1.642-.228 2.18" mask="url(#fn)"/>
        </g>
    </g>
</svg>
