<svg xmlns="http://www.w3.org/2000/svg" xmlns:xlink="http://www.w3.org/1999/xlink" width="129" height="93" viewBox="0 0 129 93">
    <defs>
        <path id="a" d="M0 .025h33.064v30.57H0z"/>
        <path id="c" d="M.246.376H19.87V20H.246z"/>
    </defs>
    <g fill="none" fill-rule="evenodd">
        <g transform="translate(0 -.025)">
            <mask id="b" fill="#fff">
                <use xlink:href="#a"/>
            </mask>
            <path fill="#FFD255" d="M1.773 5.644l14.622-2.146c-.719 4.358-1.434 8.718-2.15 13.078-.183 1.095.844 1.791 1.811 1.748 4.504-.203 9.005-.403 13.508-.605-.645 3.726-1.29 7.45-1.939 11.177-.352 2.018 2.806 2.365 3.156.353.754-4.339 1.505-8.679 2.26-13.019.19-1.094-.855-1.789-1.812-1.748-4.51.203-9.019.404-13.527.605.73-4.432 1.46-8.864 2.187-13.297.17-1.025-.837-1.89-1.81-1.75C12.486.862 6.894 1.681 1.305 2.502c-2.025.298-1.56 3.44.467 3.142" mask="url(#b)"/>
        </g>
        <path fill="#90D2CF" d="M29.95 5.619l14.623-2.146c-.72 4.358-1.435 8.718-2.152 13.078-.182 1.095.845 1.79 1.81 1.748 4.505-.203 9.007-.403 13.51-.605-.645 3.726-1.292 7.45-1.94 11.177-.351 2.018 2.806 2.365 3.156.353.754-4.34 1.506-8.68 2.262-13.02.189-1.093-.856-1.788-1.813-1.747-4.51.203-9.02.404-13.527.605.728-4.432 1.459-8.864 2.187-13.297.169-1.025-.837-1.891-1.811-1.75-5.59.822-11.182 1.64-16.773 2.462-2.024.298-1.56 3.439.468 3.142"/>
        <g transform="translate(109 72.975)">
            <mask id="d" fill="#fff">
                <use xlink:href="#c"/>
            </mask>
            <path fill="#90D2CF" d="M19.87 7.528h-7.154V.376h-5.32v7.152H.246v5.32h7.15V20h5.32v-7.153h7.154z" mask="url(#d)"/>
        </g>
        <path fill="#FEFEFE" d="M38.69 49.274a5.627 5.627 0 0 1-11.253 0 5.627 5.627 0 0 1 11.252 0"/>
    </g>
</svg>
