<svg xmlns="http://www.w3.org/2000/svg" width="58" height="64" viewBox="0 0 58 64">
    <g fill="#000" fill-rule="evenodd">
        <path d="M33.728 25.833a1.264 1.264 0 0 0-.788-.764 1.299 1.299 0 0 0-.846.003c-.662.23-1.01.94-.78 1.589a2.069 2.069 0 0 1 .057 1.246 2.152 2.152 0 0 1-2 1.584c-.03.001-.06.005-.091.005-.707 0-1.28.56-1.28 1.252 0 .691.573 1.252 1.28 1.252a4.818 4.818 0 0 0 2.14-.504 4.715 4.715 0 0 0 1.881-1.7A4.54 4.54 0 0 0 34 27.381a4.518 4.518 0 0 0-.272-1.548z"/>
        <path fill-rule="nonzero" d="M58 26.63v-1.438c0-.963-.78-1.747-1.737-1.747h-3.125a24.597 24.597 0 0 0-3.748-9.377 5.399 5.399 0 0 0 1.784-4.015V8.614c0-.963-.78-1.747-1.737-1.747H42.04a24.3 24.3 0 0 0-7.372-3.122c.018-.184.028-.37.028-.56V1.749c0-.964-.78-1.748-1.737-1.748h-7.916c-.958 0-1.738.784-1.738 1.748v1.438c0 .188.01.375.03.56-2.65.632-5.133 1.7-7.374 3.12H8.563c-.958 0-1.737.785-1.737 1.748v1.438a5.4 5.4 0 0 0 1.784 4.016 24.598 24.598 0 0 0-3.748 9.377H1.737C.78 23.445 0 24.229 0 25.192v1.438c0 2.804 2.137 5.115 4.858 5.373a24.58 24.58 0 0 0 2.99 8.177 1.75 1.75 0 0 0-1.022 1.59v1.438c0 2.976 2.407 5.398 5.365 5.398h.66c.828 0 1.612-.19 2.313-.528A24.51 24.51 0 0 0 18 49.767l-2.95 6.744h-2.057c-1.772 0-3.213 1.45-3.213 3.232V61.5H1.243C.556 61.5 0 62.06 0 62.75S.556 64 1.243 64H25.956c.686 0 1.242-.56 1.242-1.25s-.556-1.25-1.242-1.25h-4.978v-1.757c0-1.782-1.44-3.232-3.212-3.232h-.001l2.508-5.734c1.07.412 2.174.75 3.31 1.009.713 2.14 2.723 3.687 5.087 3.687h.66c2.364 0 4.374-1.547 5.087-3.687a24.192 24.192 0 0 0 3.486-1.076l2.538 5.801h-.207c-1.771 0-3.212 1.45-3.212 3.232V61.5h-1.126c-.686 0-1.243.56-1.243 1.25S35.21 64 35.896 64H56.757c.686 0 1.243-.56 1.243-1.25s-.557-1.25-1.243-1.25H48.22v-1.757c0-1.782-1.44-3.232-3.212-3.232h-1.85l-2.988-6.83a24.512 24.512 0 0 0 2.667-1.603c.701.338 1.485.528 2.313.528h.66c2.958 0 5.365-2.422 5.365-5.398V41.77a1.75 1.75 0 0 0-1.021-1.59 24.58 24.58 0 0 0 2.99-8.177C55.862 31.745 58 29.434 58 26.63zM17.766 59.011a.73.73 0 0 1 .727.732V61.5h-6.228v-1.757a.73.73 0 0 1 .728-.732h4.773zm26.484 0h.757a.73.73 0 0 1 .727.732V61.5h-6.228v-1.757a.73.73 0 0 1 .728-.732h4.016zM45.33 9.367h3.358v.685a2.896 2.896 0 0 1-2.88 2.898H45.149a2.867 2.867 0 0 1-2.193-1.022 2.894 2.894 0 0 1-.687-1.865V9.367h3.062zM43.3 15.119c.577.214 1.2.331 1.85.331h.66c.48 0 .944-.064 1.387-.184a22.111 22.111 0 0 1 3.413 8.179h-2.262c-.958 0-1.738.784-1.738 1.747v1.294h-8.943a8.792 8.792 0 0 0-1.661-4.029l7.294-7.338zm-9.468-9.002a21.799 21.799 0 0 1 5.963 2.311c-.007.061-.01.124-.01.187v1.438c0 1.404.536 2.684 1.413 3.645l-6.95 6.992a8.685 8.685 0 0 0-4.004-1.672V8.504a5.374 5.374 0 0 0 3.588-2.387zm1.44 21.62a6.294 6.294 0 0 1-1.048 3.486 6.34 6.34 0 0 1-1.757 1.768 6.217 6.217 0 0 1-6.932 0 6.339 6.339 0 0 1-2.681-4.005 6.358 6.358 0 0 1 0-2.5 6.339 6.339 0 0 1 2.681-4.004 6.217 6.217 0 0 1 6.931 0 6.341 6.341 0 0 1 2.682 4.005c.08.404.124.822.124 1.25zM25.79 2.5h6.42v.686a2.902 2.902 0 0 1-1.968 2.748c-.287.096-.593.15-.912.15h-.66a2.852 2.852 0 0 1-1.503-.428 2.902 2.902 0 0 1-1.375-2.366l-.002-.104V2.5zm-7.584 5.928a21.794 21.794 0 0 1 5.962-2.31 5.373 5.373 0 0 0 3.59 2.386v10.514a8.683 8.683 0 0 0-4.006 1.671l-6.949-6.99a5.394 5.394 0 0 0 1.413-3.647V8.614a1.78 1.78 0 0 0-.01-.186zm-5.538.939h3.063V10.063a2.894 2.894 0 0 1-.687 1.865 2.867 2.867 0 0 1-2.193 1.022H12.19c-.82 0-1.56-.347-2.086-.903a2.896 2.896 0 0 1-.794-1.995v-.685h3.357zm-1.864 5.899c.442.12.907.184 1.387.184h.66c.65 0 1.273-.117 1.85-.33l7.294 7.337a8.792 8.792 0 0 0-1.661 4.03H11.39v-1.295c0-.963-.779-1.747-1.737-1.747H7.391a22.112 22.112 0 0 1 3.413-8.179zm-4.78 14.262h-.659c-.284 0-.558-.042-.818-.12a2.9 2.9 0 0 1-2.062-2.778v-.685h6.42v.685a2.9 2.9 0 0 1-1.872 2.715 2.85 2.85 0 0 1-1.008.183zm1.334 2.331a5.395 5.395 0 0 0 3.493-2.873h9.483a8.792 8.792 0 0 0 1.661 4.03l-6.965 7.007h-4.35a22.107 22.107 0 0 1-3.322-8.164zm8.373 10.993v.356c0 .654-.216 1.258-.581 1.743a2.872 2.872 0 0 1-2.3 1.155h-.659c-1.588 0-2.88-1.3-2.88-2.898v-.685h6.42v.33zm3.27 4.625a21.935 21.935 0 0 1-1.838-1.062 5.39 5.39 0 0 0 1.053-3.207V41.77c0-.398-.134-.764-.357-1.058l5.893-5.929c.2.15.405.29.617.424l-5.367 12.27zm4.304 1.16v.504a21.754 21.754 0 0 1-2.03-.655l5.367-12.268a8.65 8.65 0 0 0 1.115.237v10.434h-2.715c-.958 0-1.737.784-1.737 1.748zm8.905 1.02v.418a2.9 2.9 0 0 1-1.032 2.22c-.501.423-1.145.677-1.848.677h-.66a2.857 2.857 0 0 1-1.848-.677 2.9 2.9 0 0 1-1.032-2.22V49.389h6.42v.269zm2.485-.516v-.504c0-.964-.78-1.748-1.737-1.748h-2.716V36.456c.445-.064.879-.161 1.3-.29l5.36 12.254c-.719.278-1.455.52-2.207.722zm4.47-1.753l-5.373-12.285c.155-.102.307-.208.455-.32l5.894 5.93c-.223.294-.358.66-.358 1.057v1.438c0 1.2.392 2.31 1.053 3.207-.54.348-1.099.672-1.67.973zm6.644-1.282H45.149a2.872 2.872 0 0 1-2.3-1.155 2.894 2.894 0 0 1-.58-1.743v-.685h6.42v.685a2.892 2.892 0 0 1-2.88 2.898zm1.51-6.083h-4.35l-6.964-7.008a8.792 8.792 0 0 0 1.661-4.029h9.482a5.396 5.396 0 0 0 3.493 2.873 22.107 22.107 0 0 1-3.321 8.164zm4.656-10.495a2.85 2.85 0 0 1-1.674-.542 2.9 2.9 0 0 1-1.207-2.356v-.685H55.515v.685a2.9 2.9 0 0 1-2.062 2.778c-.26.077-.534.12-.819.12h-.66z"/>
        <path d="M31.923 62.618a.987.987 0 0 0-.541-.541.967.967 0 0 0-.765 0 1.01 1.01 0 0 0-.45.368A1.013 1.013 0 0 0 30 63a1.007 1.007 0 0 0 .618.923A.969.969 0 0 0 31 64a.986.986 0 0 0 .382-.077.987.987 0 0 0 .541-.541.985.985 0 0 0 0-.764z"/>
    </g>
</svg>
